<svg height="297mm" style="background: white" viewBox="0 0 420 297" width="420mm" xmlns="http://www.w3.org/2000/svg" xmlns:inkscape="http://www.inkscape.org/namespaces/inkscape">
<path d="M125.323235,100.65 L209.46465,109.05 L255,117.8 L264.40405,121.3 L270.34344,123.75 L271.33334,125.5 L291.13132,167.85 L292.12122,171.7 L290.63635,177.65 L289.15152,183.25 L280.24243,191.3 L235.20203,216.15 L218.37373,221.05 L123.34344,114.65 L120.37374,105.2 L123.34344,102.05 L217.38383,111.5 L261.9293,121.3 L269.35355,128.65 L289.15152,167.5 L286.67676,178 L281.23233,183.6 L234.21213,215.8 L216.39394,216.85 L124.333336,115.35 L122.35354,109.4 L122.84849,102.75 L133.24243,103.45 L214.41414,111.5 L223.32323,113.25 L250.54546,120.25 L263.9091,124.1 L273.80807,137.4 L286.18182,172.75 L235.20203,214.4 L222.82828,215.45 L217.87878,214.75 L133.24243,122 L124.333336,110.1 L125.818184,106.25 L126.80808,105.2 L214.90909,112.55 L223.32323,113.95 L237.67677,117.45 L261.9293,124.8 L274.30304,140.9 L277.27274,148.6 L284.69696,172.75 L278.75757,178.35 L233.71718,213.35 L218.37373,207.05 L216.39394,206 L184.22223,175.55 L132.74748,120.95 L128.29292,115 L126.31313,111.85 L125.323235,108.35 L128.29292,107.65 L135.22223,106.25 L205.0101,112.9 L219.85858,114.65 L224.80807,115.35 L243.61617,119.55 L259.9495,124.8 L274.30304,143.7 L283.21213,172.4 L277.27274,178.7 L231.24243,203.9 L221.34343,203.2 L216.88889,202.15 L212.43434,201.1 L191.15152,181.5 L188.18182,178.7 L167.39394,157.35 L134.72728,121.65 L128.29292,113.6 L128.29292,110.1 L131.26262,107.65 L204.51515,112.9 L222.33333,115 L239.16162,118.85 L243.61617,120.6 L254.0101,125.85 L258.46466,130.05 L276.77777,159.45 L280.73737,170.3 L230.25252,197.95 L209.9596,195.85 L197.58586,185.7 L158.48485,146.5 L136.70708,123.05 L129.77777,115.35 L130.76767,113.95 L136.70708,111.15 L141.65657,110.1 L206,113.25 L234.21213,118.15 L247.57576,124.1 L255,129.35 L257.47476,131.1 L271.82828,153.85 L275.29294,169.95 L224.80807,194.45 L222.33333,195.15 L221.34343,195.15 L203.52525,190.25 L198.57576,186.4 L163.43434,151.05 L134.23233,119.55 L131.26262,115 L132.74748,113.25 L140.66667,111.15 L201.0505,114.3 L210.45454,115.7 L219.36363,117.45 L253.51515,130.4 L260.44446,137.05 L269.35355,153.15 L273.31314,162.95 L274.30304,165.75 L270.83838,171.7 L226.29292,191.3 L217.87878,192.7 L205.0101,190.6 L172.83838,159.45 L166.40404,153.15 L135.22223,118.15 L137.20203,113.95 L143.63637,112.55 L206.49495,117.45 L223.81818,121.3 L239.16162,125.85 L246.09091,127.95 L256.9798,139.15 L265.39395,148.6 L270.83838,160.5 L270.34344,165.75 L267.86868,167.15 L223.81818,191.3 L216.88889,192 L208.9697,189.9 L200.06061,182.9 L184.22223,169.6 L160.46465,146.15 L137.20203,119.55 L137.20203,118.15 L141.65657,113.6 L143.14142,113.6 L203.52525,117.8 L207.9798,118.5 L230.25252,125.85 L248.07071,133.55 L252.52525,136.35 L259.9495,142.65 L263.9091,148.6 L267.37375,160.85 L219.85858,187.8 L212.92929,188.5 L206,187.45 L191.64647,175.55 L172.83838,157 L150.56566,134.6 L148.09091,131.8 L143.63637,126.2 L141.16162,118.5 L150.56566,116.4 L209.9596,120.6 L220.84848,123.75 L225.79797,125.5 L235.69698,129.7 L252.0303,137.4 L222.33333,186.05 L206.49495,185 L187.19193,169.25 L184.22223,166.8 L175.31313,158.4 L154.52525,137.75 L149.08081,132.15 L143.63637,125.5 L143.63637,124.8 L143.63637,120.95 L149.57576,117.45 L152.54546,116.75 L208.9697,122 L214.90909,123.4 L228.27272,127.25 L231.24243,139.5 L214.41414,179.4 L213.42424,181.15 L206.9899,184.3 L197.09091,176.95 L185.21213,167.5 L182.73738,165.4 L156.0101,138.8 L147.59596,128.65 L147.10101,122.35 L153.0404,118.15 L209.9596,124.45 L228.76767,133.9 L229.26262,137.05 L228.76767,138.8 L215.89899,174.5 L210.9495,182.2 L200.06061,177.3 L182.24243,164.7 L158.9798,140.55 L151.06061,131.45 L150.07071,130.05 L147.59596,123.75 L155.51515,120.6 L207.48485,125.5 L213.42424,126.55 L228.76767,134.95 L228.27272,137.05 L214.41414,175.9 L206.9899,175.9 L196.10101,173.1 L179.27272,159.45 L165.90909,146.85 L155.51515,135.65 L148.58586,123.4 L151.06061,122.7 L156.0101,122.35 L205.50505,125.5 L217.38383,130.05 L222.82828,136.7 L220.84848,153.15 L219.36363,160.85 L211.44444,174.15 L207.9798,173.45 L202.0404,171 L197.58586,168.9 L182.24243,160.85 L160.9596,140.2 L149.57576,124.45 L157.49495,124.1 L210.45454,128.3 L220.84848,137.05 L220.84848,140.9 L214.41414,168.2 L211.93939,168.9 L206.49495,168.9 L187.19193,161.9 L179.76767,158.4 L157,134.6 L151.55556,126.55 L152.54546,124.45 L210.45454,129.7 L214.41414,131.8 L218.37373,148.25 L211.93939,165.4 L209.9596,166.45 L208.47475,166.8 L206,166.45 L190.65657,160.85 L170.85858,148.25 L152.0505,125.85 L154.52525,125.5 L159.47475,125.15 L208.9697,131.1 L214.90909,136.7 L213.91919,145.1 L210.9495,162.6 L210.45454,165.05 L204.0202,165.4 L197.58586,162.95 L193.62627,161.2 L166.89899,142.3 L157,130.4 L159.9697,127.6 L166.40404,126.9 L209.9596,135.3 L211.44444,137.4 L210.45454,163.65 L209.9596,165.05 L196.10101,159.8 L189.17172,155.6 L167.39394,140.2 L158.48485,130.4 L159.47475,129 L163.92929,128.65 L166.40404,128.65 L210.45454,136.35 L208.9697,160.5 L206.9899,162.6 L190.16162,155.6 L165.41414,137.4 L161.45454,132.5 L160.46465,130.75 L165.90909,130.75 L206.49495,145.45 L207.9798,147.55 L207.48485,156.65 L193.62627,154.2 L167.39394,137.4 L162.93939,132.5 L205.50505,146.5 L205.0101,150.7 L197.09091,151.05 L203.0303,147.2 M205.0101,111.15 L206.9899,111.5 L247.57576,118.85 L263.9091,123.4 L266.38385,125.15 L272.32324,132.5 L289.15152,159.8 L289.64645,161.55 L291.13132,169.95 L288.65656,186.05 L278.75757,197.6 L221.34343,152.1 L203.0303,122.7 L228.27272,118.15 L241.14142,118.5 L249.55556,119.55 L256.9798,123.05 L269.35355,133.2 L272.81818,137.75 L288.16162,159.8 L290.14142,163.3 L290.14142,167.15 L289.64645,176.6 L285.68686,187.8 L278.75757,196.55 L219.85858,143 L211.44444,128.65 L219.85858,121.3 L223.81818,120.25 L230.25252,118.85 L251.0404,122.7 L277.27274,145.45 L285.68686,161.55 L287.66666,168.2 L288.65656,176.25 L286.67676,181.15 L283.70706,182.2 L273.31314,181.5 L225.30302,141.6 L216.88889,134.25 L213.42424,130.4 L226.78787,120.25 L246.58586,122.35 L253.51515,126.9 L273.31314,142.3 L279.25253,149.3 L282.22223,157 L285.68686,177.3 L281.72726,180.8 L279.74747,181.85 L271.33334,175.9 L231.73738,138.45 L226.78787,123.75 L235.69698,121.65 L251.53535,129.35 L267.86868,140.9 L278.26263,151.4 L281.23233,155.6 L282.22223,160.15 L285.19193,175.9 L282.71716,179.75 L273.31314,176.95 L232.72728,132.5 L231.73738,131.1 L234.70708,125.15 L253.0202,130.75 L277.27274,154.9 L282.71716,165.05 L284.69696,173.45 L280.24243,175.2 L275.29294,173.1 L269.84848,170.3 L236.19193,133.9 L239.65657,127.6 L255,136.35 L263.41415,141.25 L269.35355,147.2 L273.80807,151.75 L276.28284,154.55 L279.74747,164.35 L282.71716,173.1 L275.78787,173.1 L270.34344,166.8 L246.58586,133.2 L252.52525,135.3 L259.9495,141.6 L274.30304,154.2 L277.27274,163.65 L277.27274,164.7 L273.80807,163.3 L270.34344,159.45 L251.53535,138.45 L274.30304,154.55 L273.80807,156.65 L272.32324,161.55 L261.43436,148.6 L261.9293,146.5 L266.38385,150.7 L268.85858,153.85 L266.87878,154.55 M191.15152,10.7 L233.22223,14.2 L239.65657,15.6 L244.60606,19.45 L249.06061,24.7 L249.55556,28.2 L248.56566,34.85 L248.07071,37.65 L238.66667,55.5 L232.23233,66.7 L168.38383,67.4 L157.49495,65.3 L156.0101,64.25 L153.53535,58.3 L154.52525,48.5 L173.82828,20.85 L182.73738,11.05 L184.22223,11.05 L233.71718,14.55 L244.11111,20.85 L248.07071,34.5 L238.66667,53.75 L232.23233,65.65 L174.32323,66.7 L168.38383,66.35 L164.42424,65.65 L155.0202,59.35 L154.52525,57.25 L156.0101,49.9 L157.49495,44.3 L173.82828,22.25 L180.75757,15.6 L185.70708,11.4 L187.19193,11.4 L226.29292,14.55 L234.70708,15.95 L245.10101,29.25 L246.09091,33.1 L246.58586,36.25 L235.20203,57.6 L226.29292,64.25 L224.31313,65.3 L181.25252,64.25 L161.9495,63.55 L157.49495,60.75 L155.51515,54.1 L157,49.9 L172.83838,24 L185.70708,12.8 L186.20203,12.45 L187.19193,11.75 L225.30302,15.25 L232.23233,17 L233.71718,17.7 L238.66667,23.3 L244.60606,32.75 L244.60606,35.9 L237.18182,52 L225.79797,63.9 L220.84848,64.6 L168.38383,61.45 L160.46465,60.05 L159.47475,56.2 L159.47475,49.55 L159.9697,45.35 L167.39394,33.8 L169.86868,30.65 L186.69698,13.5 L194.12122,13.85 L230.74748,17 L235.69698,21.2 L243.61617,35.9 L236.19193,49.55 L229.75757,58.65 L227.77777,60.4 L220.35353,62.85 L168.38383,61.1 L161.45454,53.05 L161.9495,45.35 L178.28282,22.95 L188.18182,17 L193.13132,16.65 L230.74748,20.15 L238.17172,26.45 L243.12122,35.2 L236.19193,48.15 L228.27272,59 L219.36363,62.5 L184.71718,61.45 L179.27272,61.1 L170.85858,58.65 L166.89899,56.2 L162.93939,47.1 L166.40404,39.4 L177.78787,24 L178.77777,23.3 L187.19193,18.05 L187.68687,18.05 L230.25252,20.15 L234.70708,23.65 L240.15152,32.05 L240.15152,37.3 L231.73738,52.35 L229.26262,56.2 L224.31313,60.4 L223.32323,60.75 L219.85858,61.8 L180.75757,61.1 L163.43434,46.75 L172.83838,31.7 L179.76767,22.95 L187.68687,19.1 L218.86868,20.15 L227.77777,20.85 L232.23233,23.3 L233.22223,25.05 L236.68687,32.05 L236.68687,43.25 L226.78787,58.3 L215.40404,60.05 L210.45454,60.4 L186.69698,59.7 L172.83838,52.7 L167.88889,49.2 L164.91919,46.75 L164.91919,44.65 L168.38383,39.05 L170.85858,36.25 L183.23233,23.65 L186.20203,22.95 L194.12122,21.55 L208.47475,20.5 L215.89899,20.85 L229.75757,22.25 L231.73738,27.15 L236.19193,40.45 L226.29292,51.3 L218.37373,59.35 L213.91919,60.05 L184.22223,58.3 L169.37373,49.9 L166.89899,46.4 L166.40404,42.9 L168.38383,39.75 L178.28282,28.9 L188.18182,24 L198.57576,22.6 L212.92929,20.85 L216.39394,21.2 L228.76767,22.6 L231.24243,27.15 L232.23233,32.4 L233.22223,38.7 L232.23233,40.45 L220.35353,56.2 L216.88889,57.6 L209.9596,59.35 L181.25252,55.85 L167.39394,42.9 L172.83838,35.55 L188.18182,25.05 L205.50505,23.3 L223.32323,24.35 L228.76767,27.85 L231.73738,31 L230.74748,39.4 L228.76767,44.3 L226.29292,47.8 L220.84848,52 L210.9495,57.6 L188.18182,56.55 L181.74748,55.85 L173.33333,48.15 L170.36363,43.25 L169.86868,41.15 L176.79797,33.8 L181.74748,30.65 L190.16162,26.8 L200.55556,24.35 L214.41414,24 L221.34343,27.85 L229.75757,33.45 L229.26262,40.45 L228.76767,42.9 L227.77777,45.7 L221.34343,50.6 L220.84848,50.95 L212.92929,55.15 L211.44444,55.85 L203.52525,56.55 L185.21213,55.15 L180.26262,51.65 L172.34343,45 L171.35353,40.1 L175.31313,36.95 L188.18182,27.85 L203.52525,24.35 L215.40404,27.15 L227.77777,32.4 L223.32323,48.85 L217.38383,52.35 L205.0101,56.2 L190.65657,55.5 L186.20203,54.1 L177.29292,47.45 L172.83838,42.2 L173.33333,41.15 L177.78787,36.95 L188.67677,29.25 L209.46465,26.1 L221.83838,30.65 L226.29292,33.8 L225.79797,38 L219.36363,46.05 L212.92929,50.95 L210.45454,52.35 L205.50505,53.75 L191.64647,54.1 L181.74748,50.6 L176.30302,44.65 L173.82828,41.5 L177.29292,37.65 L179.76767,35.9 L184.71718,34.15 L204.51515,27.15 L210.9495,26.8 L216.39394,29.95 L223.32323,40.1 L217.38383,45.35 L214.41414,47.8 L207.48485,51.3 L201.54546,53.05 L191.15152,53.75 L183.72728,49.9 L177.29292,45 L176.30302,43.6 L179.27272,36.25 L196.10101,30.3 L207.9798,29.6 L216.39394,32.05 L218.37373,44.3 L211.44444,48.15 L197.58586,53.05 L182.73738,47.8 L179.27272,46.4 L177.29292,43.25 L179.76767,36.6 L196.10101,31.35 L204.0202,31.7 L211.44444,32.75 L216.39394,33.45 L216.39394,43.95 L215.40404,45 L213.42424,46.4 L196.10101,52 L195.11111,52 L182.24243,46.05 L177.78787,43.95 L183.72728,39.4 L198.57576,31.7 L210.45454,34.15 L214.90909,35.55 L214.41414,45 L202.53535,49.2 L198.08081,50.25 L179.27272,43.25 L188.18182,37.65 L201.54546,33.45 L208.47475,37.3 L213.91919,40.45 L214.41414,42.9 L200.55556,48.15 L197.58586,49.2 L195.60606,48.5 L190.65657,46.75 L188.67677,45.7 L186.69698,39.4 L191.15152,37.3 L201.0505,35.9 L207.48485,39.4 L208.9697,44.3 L200.55556,46.75 L189.17172,43.95 L187.68687,41.15 L187.19193,40.1 L193.13132,37.3 L201.0505,39.4 L204.0202,41.5 L206.49495,44.65 L200.06061,46.4 L189.17172,41.15 L191.15152,39.4 L196.10101,39.05 L200.06061,40.8 L202.53535,42.9 L203.52525,44.65 L199.56566,45.35 L193.13132,42.9 L191.64647,41.5 L198.08081,43.6 M84.242424,148.95 L93.15151,162.95 L105.52525,217.2 L100.57576,250.45 L99.09091,253.25 L75.828285,274.95 L64.44444,281.6 L35.242424,288.95 L26.333334,288.25 L24.353535,285.8 L12.474748,239.95 L15.939394,186.75 L45.141415,153.5 L61.969696,152.8 L67.90909,153.15 L87.21212,156.3 L91.171715,160.15 L103.05051,206.7 L103.545456,209.85 L103.545456,223.15 L100.08081,249.4 L98.10101,253.25 L75.333336,273.55 L70.383835,277.4 L67.41414,279.15 L62.959595,281.6 L32.272728,288.25 L28.80808,282.65 L13.959596,239.25 L13.959596,235.05 L19.89899,187.1 L26.828283,177.65 L44.646465,155.6 L57.515152,154.2 L61.474747,153.85 L63.454544,154.2 L85.23232,159.45 L100.57576,207.75 L103.05051,223.15 L100.08081,248.7 L76.323235,270.4 L64.44444,278.45 L42.17172,285.45 L41.67677,285.45 L29.79798,283.35 L15.444445,238.9 L25.343435,183.25 L40.68687,164 L53.060608,155.95 L55.040405,155.25 L63.949493,153.5 L83.747475,160.5 L87.70707,167.5 L99.09091,209.5 L99.58586,212.65 L101.07071,231.9 L99.58586,248.7 L78.79798,267.6 L66.42424,276 L54.050507,281.25 L42.17172,284.75 L28.80808,271.8 L18.90909,238.55 L25.838385,186.75 L27.818182,183.25 L41.18182,164.7 L53.555557,158.4 L70.383835,158.75 L82.26263,161.2 L84.242424,166.1 L98.10101,207.4 L99.58586,222.8 L100.08081,230.5 L98.59596,249.05 L95.62626,251.85 L80.77778,265.15 L74.34344,269 L57.515152,278.45 L51.080807,281.95 L36.727272,279.15 L32.272728,274.95 L30.292929,269.7 L22.373737,243.45 L20.88889,230.85 L20.88889,228.05 L40.191917,169.25 L67.90909,159.45 L82.26263,162.25 L98.10101,210.2 L98.59596,218.25 L99.09091,234.35 L97.111115,246.95 L91.171715,254.3 L79.29293,265.5 L68.89899,271.8 L53.555557,279.15 L52.070705,279.15 L42.17172,277.4 L33.757576,273.2 L29.79798,262 L24.353535,243.45 L25.838385,229.45 L41.18182,172.75 L54.050507,165.05 L65.43434,161.55 L70.878784,160.85 L81.27273,168.2 L82.26263,169.95 L91.666664,193.05 L97.111115,226.65 L97.606064,232.25 L95.13131,240.65 L85.72727,258.5 L77.80808,264.8 L61.969696,274.25 L60.484848,274.95 L46.626263,278.1 L40.191917,275.3 L34.747475,270.4 L26.333334,248.35 L25.838385,239.25 L43.656567,176.25 L54.050507,168.2 L66.42424,161.55 L77.31313,166.1 L80.28283,169.95 L86.71717,181.85 L90.676765,201.1 L94.63636,223.85 L94.14141,234.7 L88.69697,250.45 L87.21212,253.95 L86.22222,256.05 L78.79798,263.75 L65.92929,271.45 L49.59596,276.35 L42.666668,275.3 L40.191917,274.25 L28.80808,251.15 L26.828283,245.2 L43.656567,177.3 L72.36364,166.1 L77.80808,167.85 L82.757576,175.55 L92.16161,211.6 L94.14141,229.45 L94.14141,232.95 L85.72727,256.05 L77.80808,262.35 L76.323235,263.4 L59,272.85 L39.696968,271.1 L31.282827,255.35 L28.80808,244.5 L28.80808,242.4 L30.292929,233.65 L57.515152,175.55 L61.969696,171 L75.333336,169.95 L79.29293,170.65 L83.252525,178 L88.69697,199.7 L90.181816,206 L92.16161,230.15 L88.20202,247.3 L87.70707,248.7 L84.73737,253.6 L72.85859,264.8 L70.878784,265.85 L58.50505,270.4 L48.60606,271.1 L38.70707,268.3 L34.747475,257.8 L30.787878,246.6 L30.787878,237.85 L31.777779,234.35 L61.474747,180.45 L71.37374,171.35 L80.28283,173.8 L84.242424,186.4 L86.71717,195.85 L90.181816,210.55 L90.181816,237.85 L85.72727,250.8 L72.85859,262.7 L50.585857,270.75 L42.666668,269.35 L34.747475,257.45 L31.777779,247.3 L32.767677,240.65 L33.757576,234 L66.91919,181.85 L71.86869,178.35 L75.828285,176.95 L76.818184,176.95 L89.68687,209.85 L89.19192,230.85 L87.70707,242.75 L81.27273,252.55 L75.333336,260.25 L61.969696,266.55 L50.090908,269.7 L47.121212,269.7 L40.191917,263.75 L36.232323,256.75 L32.767677,243.1 L33.757576,235.4 L34.252525,233.65 L65.92929,187.45 L69.888885,182.9 L75.333336,181.15 L76.323235,181.15 L81.27273,189.9 L86.22222,201.45 L87.70707,212.3 L76.323235,257.1 L67.90909,262.35 L59.9899,266.9 L47.61616,267.25 L39.20202,261.65 L35.737373,244.5 L37.71717,237.15 L67.41414,188.15 L69.393936,187.8 L78.30303,187.45 L83.252525,197.95 L85.23232,209.15 L85.23232,217.9 L73.35354,257.1 L69.393936,260.6 L55.040405,266.2 L47.61616,265.85 L45.636364,265.15 L39.20202,258.5 L37.22222,250.45 L38.70707,246.6 L41.18182,242.05 L72.85859,188.85 L83.252525,199.7 L84.242424,208.8 L84.242424,214.75 L82.757576,221.05 L70.878784,258.15 L64.93939,262 L62.959595,262.7 L47.61616,265.5 L46.626263,265.15 L41.18182,256.4 L40.191917,252.9 L39.696968,250.8 L72.85859,189.55 L82.26263,201.8 L84.242424,211.25 L83.252525,216.15 L81.76768,221.05 L65.92929,259.55 L64.44444,260.95 L57.020203,263.05 L52.070705,263.75 L42.17172,257.8 L41.18182,250.1 L44.646465,241.7 L70.383835,195.85 L74.83839,192.35 L83.252525,207.05 L81.76768,214.4 L80.77778,218.25 L64.93939,256.75 L63.454544,259.55 L51.575756,263.4 L46.131313,259.2 L43.656567,256.75 L43.656567,244.5 L70.878784,195.85 L77.80808,199 L81.76768,205.65 L80.77778,217.9 L61.969696,256.75 L59.9899,257.8 L53.060608,259.2 L47.121212,259.55 L44.646465,256.05 L43.656567,247.3 L77.31313,199.7 L79.78788,206 L80.28283,215.8 L79.78788,216.85 L59,257.45 L53.060608,258.5 L47.121212,254.65 L72.85859,211.6 L78.79798,209.5 L77.80808,216.5 L60.484848,252.55 L57.020203,255.35 L49.10101,259.2 L53.060608,248.7 L78.30303,210.9 L55.535355,249.75 L52.565655,253.6 M25.838385,10 L54.545456,11.05 L87.70707,28.55 L88.20202,35.55 L64.44444,48.15 L46.626263,56.2 L39.20202,57.25 L15.939394,52.7 L12.969697,49.9 L10,44.3 L10.494949,27.15 L17.919191,12.45 L27.818182,10.7 L54.545456,12.1 L86.71717,28.9 L85.23232,35.2 L79.78788,39.05 L66.91919,46.4 L54.545456,52 L45.636364,55.5 L39.20202,56.9 L26.828283,54.8 L20.39394,52.7 L11.484848,44.65 L10.494949,34.15 L10.989899,27.15 L12.474748,23.65 L16.434343,15.6 L19.89899,12.45 L25.343435,11.4 L43.161617,12.1 L51.575756,13.15 L55.535355,14.2 L56.525253,14.55 L80.28283,27.5 L83.747475,35.9 L75.333336,40.45 L59,49.2 L45.636364,55.15 L43.656567,55.85 L37.22222,56.55 L29.79798,54.8 L27.323233,54.1 L19.404041,50.6 L18.90909,50.25 L11.979798,44.3 L11.484848,29.95 L13.464646,24 L17.424242,15.6 L18.90909,13.5 L32.767677,12.1 L50.585857,13.5 L52.565655,13.85 L56.030304,14.55 L76.818184,26.45 L80.77778,30.65 L81.27273,31.7 L82.757576,35.55 L67.90909,44.3 L46.626263,54.45 L44.646465,54.8 L40.191917,55.15 L28.80808,53.4 L24.353535,52.7 L20.39394,50.6 L16.929293,48.5 L14.454545,45.7 L11.979798,35.9 L11.979798,35.2 L12.969697,28.2 L13.464646,25.4 L15.444445,20.15 L15.939394,19.1 L18.90909,17.7 L28.313131,13.85 L32.272728,12.45 L35.242424,12.45 L39.20202,12.8 L48.60606,13.85 L55.040405,14.9 L67.90909,21.55 L75.333336,27.85 L79.78788,34.5 L80.28283,35.9 L71.37374,41.5 L47.61616,52.35 L45.141415,53.05 L27.818182,52.35 L18.90909,48.85 L13.959596,43.25 L12.969697,37.3 L15.444445,21.9 L17.919191,19.8 L26.828283,14.9 L28.80808,13.85 L34.747475,12.8 L48.11111,15.25 L57.020203,17 L66.91919,22.6 L73.84849,27.85 L76.323235,32.05 L76.818184,33.8 L77.31313,37.3 L69.393936,41.85 L50.090908,50.95 L44.151516,51.65 L31.282827,52.35 L20.88889,47.8 L14.454545,43.6 L13.464646,37.3 L18.90909,22.25 L22.868687,17.7 L34.252525,13.15 L52.565655,16.3 L59,18.75 L67.90909,24.7 L73.35354,28.55 L74.83839,33.1 L72.85859,36.6 L67.90909,42.2 L57.515152,46.4 L50.090908,48.5 L34.252525,52 L21.383839,47.1 L14.949495,43.6 L14.949495,36.6 L22.373737,24 L23.363636,22.6 L29.79798,17 L32.272728,15.95 L38.21212,15.6 L59.9899,19.45 L71.86869,27.5 L73.35354,31.35 L73.35354,34.5 L72.85859,36.25 L62.464645,43.25 L58.50505,44.65 L48.60606,48.15 L41.18182,50.25 L24.848484,48.15 L16.434343,43.25 L15.939394,36.25 L15.939394,35.55 L22.373737,27.5 L31.282827,16.65 L31.777779,16.3 L43.161617,16.65 L55.535355,18.75 L63.454544,22.25 L67.90909,25.05 L71.37374,27.5 L70.878784,31 L68.89899,37.3 L65.92929,40.8 L49.10101,46.75 L40.68687,49.55 L35.737373,48.5 L20.88889,45.35 L16.434343,42.9 L17.424242,36.95 L21.383839,28.9 L23.858585,25.75 L31.777779,19.45 L32.272728,19.1 L33.262627,18.75 L35.737373,18.05 L41.18182,16.65 L42.17172,16.65 L49.10101,17.7 L53.060608,18.4 L67.90909,26.1 L67.41414,38.35 L65.43434,40.8 L57.020203,43.95 L48.60606,46.4 L38.70707,48.5 L19.89899,44.65 L17.424242,38.7 L20.39394,32.75 L23.363636,27.15 L24.848484,25.05 L31.777779,20.85 L36.727272,18.75 L47.61616,17.7 L56.030304,21.2 L59.9899,22.95 L64.93939,25.4 L66.91919,33.45 L67.41414,37.65 L60.484848,41.85 L41.18182,47.1 L34.252525,46.75 L21.878788,41.85 L18.90909,40.45 L21.878788,32.05 L25.343435,25.4 L30.292929,21.9 L44.151516,18.75 L52.565655,20.85 L65.43434,27.5 L64.93939,34.5 L59.9899,40.1 L55.040405,43.25 L37.22222,46.05 L33.262627,46.05 L23.858585,41.15 L22.868687,32.4 L23.858585,29.25 L30.292929,22.25 L45.141415,19.45 L52.070705,21.9 L60.484848,26.45 L64.44444,28.9 L64.93939,29.25 L61.474747,38 L53.060608,42.9 L49.59596,43.95 L32.272728,45.35 L27.818182,42.9 L24.353535,40.8 L24.353535,36.6 L25.343435,33.1 L26.333334,29.95 L27.818182,26.1 L31.777779,24.35 L41.67677,21.55 L44.151516,21.2 L56.525253,24.35 L62.464645,32.05 L58.50505,36.95 L50.585857,41.85 L35.242424,45 L29.30303,43.6 L25.838385,41.5 L25.343435,35.55 L26.828283,30.3 L28.313131,28.2 L33.757576,24.7 L44.646465,21.55 L56.525253,27.15 L59,35.2 L44.151516,42.55 L40.191917,43.25 L34.747475,43.25 L28.313131,39.4 L26.333334,33.8 L36.727272,24.7 L46.626263,22.6 L48.60606,24 L54.545456,28.9 L56.525253,32.4 L57.515152,35.2 L43.656567,42.55 L36.727272,43.25 L33.262627,41.5 L30.292929,39.4 L26.828283,33.45 L42.17172,24.35 L43.161617,24.35 L45.636364,24.35 L47.61616,24.7 L55.040405,29.95 L55.535355,31.35 L54.545456,34.5 L50.090908,39.05 L42.666668,42.2 L31.282827,40.1 L29.30303,32.75 L38.21212,27.15 L44.646465,25.4 L48.11111,27.5 L52.070705,30.3 L53.060608,34.15 L46.131313,39.75 L39.20202,41.15 L31.282827,39.05 L34.252525,32.05 L37.71717,28.55 L44.151516,27.5 L50.090908,30.65 L51.575756,31.7 L51.080807,33.45 L47.121212,37.65 L40.68687,38.7 L33.262627,36.95 L33.262627,36.6 L37.71717,33.1 L46.131313,28.55 L50.090908,33.1 L48.11111,35.2 L45.141415,36.95 L40.68687,38 L41.18182,32.05 L48.11111,32.05 L44.151516,36.25 L41.67677,37.3 L41.18182,37.3 L47.121212,32.4 L43.656567,35.9 M80.77778,149.3 L86.22222,152.45 L88.69697,175.9 L80.77778,180.45 L21.383839,190.6 L17.919191,189.9 L15.939394,188.15 L17.424242,181.15 L44.151516,155.25 L50.090908,151.4 L56.030304,150.7 L73.35354,150.35 L76.323235,150.35 L84.242424,157 L86.71717,167.85 L74.83839,180.45 L24.353535,187.8 L18.90909,185.35 L43.161617,157.7 L46.626263,154.9 L76.818184,152.1 L80.77778,161.9 L81.27273,165.4 L79.29293,173.1 L67.41414,177.65 L59,179.4 L22.373737,186.05 L26.333334,179.75 L43.161617,158.75 L60.979797,158.75 L79.29293,159.45 L73.84849,167.85 L60.484848,178 L37.22222,167.85 L46.626263,159.45 L65.43434,162.6 L64.93939,173.1 L56.030304,173.8 L45.141415,169.6 L52.070705,160.5 L63.454544,164.35 L63.454544,169.25 L54.545456,167.85 L51.080807,166.45 L51.575756,161.55 L59,165.75 L56.525253,166.1 L53.555557,164.35 M361.9091,144.05 L365.37375,146.15 L369.33334,150.7 L375.27274,158.4 L397.0505,213.35 L396.55554,222.1 L395.56564,225.6 L391.1111,229.45 L382.69696,230.85 L369.33334,231.2 L362.40405,230.5 L360.9192,229.8 L321.32324,189.55 L317.85858,179.75 L322.80807,168.9 L334.68686,157 L344.58585,148.25 L348.54544,145.45 L365.37375,151.4 L371.31314,155.95 L375.76767,160.85 L394.57574,213 L396.0606,219.65 L393.0909,227.35 L387.64645,228.75 L375.76767,230.15 L366.85858,230.85 L363.8889,229.8 L361.9091,228.75 L320.82828,187.45 L319.83838,181.15 L319.83838,178.7 L320.33334,174.5 L325.28284,168.55 L346.56564,147.55 L348.54544,146.85 L361.41415,150.7 L364.87878,152.1 L370.32324,156.65 L374.77777,166.1 L394.0808,212.3 L395.0707,219.65 L390.12122,224.55 L389.13132,225.25 L380.22223,228.05 L368.34344,229.1 L367.35355,228.75 L366.85858,228.4 L355.9697,220.35 L329.24243,195.85 L326.76767,192.7 L320.82828,183.25 L320.33334,181.15 L320.33334,175.9 L323.30304,171.7 L330.72726,163.3 L344.58585,151.75 L348.0505,150.7 L353.9899,151.05 L366.36365,157 L370.32324,159.45 L374.28284,166.45 L394.0808,213.35 L394.57574,219.3 L388.63635,225.25 L386.65656,225.95 L371.80807,228.75 L365.37375,227 L331.22223,197.6 L330.23233,195.85 L321.32324,180.1 L322.31314,176.95 L324.78787,170.65 L335.67676,159.8 L347.55554,152.8 L353.9899,152.1 L373.29294,166.1 L392.59595,212.65 L394.0808,216.5 L394.0808,217.2 L391.60605,221.75 L386.65656,223.5 L383.19193,224.55 L374.28284,227 L367.84848,225.95 L362.40405,223.85 L355.47476,217.55 L330.23233,192.7 L325.77777,187.8 L322.80807,180.1 L325.77777,173.1 L335.67676,161.2 L342.1111,156.65 L350.0303,152.8 L352.50504,152.45 L367.84848,162.25 L375.27274,172.05 L376.75757,175.2 L393.0909,214.05 L388.63635,222.1 L379.23233,225.25 L372.30304,226.65 L363.8889,224.2 L361.9091,222.8 L334.68686,195.85 L327.26263,179.05 L326.76767,173.45 L340.13132,158.4 L342.1111,157 L351.51514,155.25 L354.48486,156.3 L365.37375,160.85 L374.28284,172.4 L392.59595,213.35 L389.62625,219.65 L385.66666,221.75 L371.31314,226.3 L360.42426,220 L332.21213,187.1 L330.72726,183.95 L337.16162,163.65 L344.58585,158.05 L349.0404,156.65 L365.86868,162.25 L367.35355,164 L373.78787,175.9 L388.63635,208.8 L390.61615,217.2 L387.15152,219.65 L375.76767,223.85 L371.31314,222.8 L361.41415,219.3 L357.9495,216.15 L331.22223,185 L337.16162,164.35 L344.58585,159.8 L347.0606,158.75 L351.51514,158.05 L352.0101,158.05 L356.9596,159.8 L364.87878,164.7 L369.82828,169.25 L375.27274,180.1 L389.13132,211.6 L386.65656,217.2 L380.71716,221.05 L367.84848,220.7 L365.86868,220.35 L356.9596,214.75 L334.68686,187.1 L333.20203,179.4 L336.17172,168.9 L341.12122,162.25 L346.0707,162.25 L348.54544,162.6 L364.38385,167.5 L369.82828,172.75 L373.29294,176.6 L387.64645,210.2 L386.65656,214.4 L379.23233,218.6 L374.28284,220.7 L368.34344,220.35 L360.9192,217.2 L336.17172,188.5 L334.68686,183.95 L333.69696,179.05 L339.63635,166.1 L351.0202,164.7 L356.46466,165.75 L362.899,167.5 L369.82828,173.45 L375.27274,182.2 L385.17172,208.45 L386.65656,213 L375.27274,218.95 L360.42426,215.45 L354.48486,208.8 L339.14142,189.55 L336.66666,184.65 L338.15152,174.85 L341.61615,170.3 L348.0505,167.15 L353.49496,166.1 L361.41415,169.25 L368.83838,173.8 L373.29294,181.85 L385.17172,208.8 L385.66666,213.35 L372.30304,217.55 L359.43436,213.35 L339.14142,189.2 L338.64645,182.55 L339.14142,179.05 L344.0909,169.95 L345.0808,169.6 L356.9596,168.9 L366.85858,172.75 L370.32324,178.35 L372.79797,182.55 L381.21213,200.05 L384.18182,208.8 L385.17172,212.3 L378.73737,215.45 L372.30304,217.2 L360.9192,213.7 L343.101,193.75 L340.13132,182.55 L340.13132,177.3 L344.58585,169.95 L352.50504,169.25 L353,169.25 L366.36365,175.2 L371.80807,183.6 L377.74747,197.25 L378.73737,199.7 L382.20203,211.6 L381.21213,213.35 L371.31314,216.85 L366.85858,214.4 L355.47476,204.6 L353.9899,203.2 L343.101,190.6 L343.59595,177.3 L346.56564,173.8 L349.53534,173.45 L362.40405,174.15 L365.37375,178 L370.81818,185.35 L378.24243,200.05 L379.23233,203.55 L379.23233,206.35 L378.73737,212.3 L378.24243,214.05 L370.32324,213.7 L356.46466,204.6 L350.52524,198.3 L350.0303,196.9 L346.0707,180.1 L350.0303,175.9 L358.9394,174.15 L366.36365,179.4 L371.80807,188.15 L373.78787,192.35 L378.73737,207.4 L376.26263,211.95 L375.76767,212.65 L366.85858,209.5 L359.9293,206.7 L351.51514,199.35 L350.52524,197.6 L351.51514,183.25 L352.0101,179.75 L354.48486,176.95 L365.37375,181.15 L370.32324,187.1 L373.29294,192 L373.78787,193.4 L376.75757,205.65 L365.86868,207.75 L357.45456,202.5 L353.49496,199.7 L352.0101,187.8 L351.51514,183.6 L359.9293,179.4 L366.85858,185.35 L371.80807,189.9 L373.29294,194.1 L374.28284,201.8 L373.78787,204.25 L359.9293,202.15 L356.46466,201.45 L353.49496,190.6 L356.46466,183.95 L357.45456,183.25 L364.38385,183.25 L368.83838,187.8 L373.29294,200.75 L373.78787,203.55 L359.43436,198.3 L356.46466,194.8 L356.9596,192.35 L358.44446,188.5 L361.41415,183.6 L366.85858,186.05 L368.83838,189.2 L369.82828,196.55 L369.33334,198.65 L368.83838,200.05 L363.8889,197.6 L356.9596,194.1 L365.86868,186.4 L368.34344,192 L367.84848,193.4 L365.86868,196.55 L358.9394,194.8 L361.41415,190.6 L364.87878,188.85 L366.85858,188.85 L366.85858,190.25 M362.899,146.15 L374.28284,173.45 L366.36365,201.45 L352.50504,199.7 L328.25253,195.85 L322.80807,189.55 L319.34344,182.2 L331.71716,167.85 L347.55554,154.55 L356.46466,148.25 L369.33334,169.95 L369.82828,187.1 L353.9899,199 L340.62625,195.5 L337.65656,194.1 L334.68686,191.65 L344.0909,175.2 L355.47476,168.55 L354.48486,195.15 L342.1111,192.35 L342.60605,181.5 M203.52525,119.9 L231.73738,133.55 L239.65657,214.4 L232.23233,220.7 L200.06061,238.9 L177.29292,243.8 L170.36363,244.5 L157,243.8 L146.60606,237.5 L145.61617,236.8 L140.17172,232.95 L137.69698,229.45 L135.71718,221.05 L141.65657,212.65 L180.75757,164.35 L186.69698,157.35 L210.9495,132.5 L221.34343,144.4 L238.17172,211.6 L236.19193,216.5 L227.77777,220.7 L185.70708,241.35 L175.31313,243.1 L167.39394,243.45 L153.53535,241.35 L146.11111,236.8 L143.63637,233.65 L137.20203,222.8 L137.69698,221.05 L143.63637,211.25 L212.43434,137.05 L219.85858,143.35 L235.20203,210.55 L235.20203,211.95 L234.21213,214.75 L227.28282,220 L195.11111,236.1 L187.19193,239.6 L169.86868,242.05 L164.42424,242.4 L151.55556,238.2 L140.66667,227 L142.15152,215.8 L198.08081,152.8 L211.44444,146.5 L217.38383,146.5 L231.24243,207.4 L232.72728,214.75 L228.27272,217.9 L190.65657,237.85 L167.39394,242.05 L145.12122,231.2 L143.63637,228.4 L142.64647,218.25 L187.19193,171.35 L201.0505,157.7 L213.42424,148.6 L218.37373,159.1 L227.77777,196.2 L230.74748,215.1 L230.25252,215.8 L184.71718,238.9 L163.92929,239.95 L149.57576,233.3 L146.11111,231.2 L144.62627,226.65 L144.13132,222.8 L145.12122,221.05 L206.49495,153.85 L217.87878,163.65 L221.34343,173.1 L229.26262,213.35 L217.87878,220 L189.66667,236.1 L185.21213,237.5 L162.44444,238.9 L154.52525,235.05 L148.58586,230.15 L144.62627,223.15 L186.69698,175.9 L211.93939,159.45 L217.87878,169.25 L220.84848,178.7 L225.79797,195.85 L223.32323,209.15 L216.88889,218.95 L194.12122,232.6 L189.17172,234.7 L163.92929,237.85 L156.50505,235.4 L155.51515,234.7 L152.0505,230.85 L148.09091,225.25 L159.9697,209.15 L194.61617,173.1 L208.9697,165.05 L221.83838,182.55 L221.83838,207.05 L219.85858,213.7 L201.54546,228.05 L190.65657,234 L189.66667,234.35 L176.79797,235.75 L171.84848,236.1 L160.9596,236.45 L153.0404,230.15 L151.55556,228.4 L151.55556,223.15 L154.0303,218.25 L160.9596,210.2 L198.57576,171 L213.91919,172.4 L221.34343,186.75 L219.85858,202.85 L218.86868,204.25 L201.0505,226.65 L198.08081,229.45 L192.63637,232.25 L183.23233,234.35 L163.92929,234 L158.9798,233.65 L153.0404,220.7 L160.46465,211.25 L197.09091,185.35 L207.48485,179.75 L218.86868,185 L219.85858,185.7 L220.84848,188.15 L220.84848,188.85 L213.91919,209.85 L195.11111,228.75 L189.17172,232.6 L171.84848,234 L163.43434,228.4 L160.46465,224.2 L157,216.15 L161.9495,211.95 L199.56566,185.35 L208.47475,180.45 L219.36363,188.15 L216.39394,201.45 L197.09091,226.65 L183.72728,232.25 L177.29292,233.3 L175.80807,232.95 L164.91919,229.1 L163.92929,227.35 L164.42424,217.2 L164.91919,216.15 L166.89899,214.05 L204.0202,185.35 L216.39394,192.7 L214.41414,200.75 L194.12122,226.65 L170.85858,230.15 L164.91919,223.15 L165.90909,220.7 L169.86868,215.8 L207.9798,192 L211.93939,192 L192.14142,226.3 L188.18182,227 L173.33333,227.7 L167.88889,226.3 L165.90909,223.15 L169.37373,220.35 L207.9798,193.4 L190.65657,226.3 L180.75757,227 L171.84848,225.6 L167.88889,222.8 L177.29292,223.15 L185.21213,226.65 L183.72728,226.65 L177.29292,225.6 L179.76767,224.55 M351.0202,50.6 L353.49496,52.35 L356.9596,55.85 L353.9899,64.6 L344.0909,89.45 L339.14142,96.1 L330.23233,107.65 L324.78787,112.55 L317.36365,117.45 L311.42426,119.55 L300.53534,120.6 L294.59595,120.95 L292.12122,120.6 L290.63635,119.2 L290.14142,109.4 L301.52524,80 L304,77.2 L309.44446,73.35 L350.52524,52.7 L353.9899,57.95 L351.51514,67.4 L346.0707,84.2 L345.0808,86.65 L326.27274,110.1 L322.31314,112.9 L311.42426,119.2 L294.59595,120.6 L291.62625,116.05 L291.62625,113.95 L291.62625,109.75 L294.101,102.4 L301.0303,84.55 L303.0101,80 L303.50504,78.95 L306.47476,75.8 L346.56564,54.8 L347.0606,54.8 L353,61.45 L349.53534,73.35 L347.0606,81.05 L345.0808,86.3 L330.23233,104.85 L323.79797,110.45 L316.86868,115.7 L304.49496,118.5 L294.59595,118.15 L294.101,110.1 L294.101,105.55 L302.0202,85.95 L306.47476,76.85 L345.0808,58.3 L351.51514,61.1 L351.51514,66.35 L349.0404,74.75 L346.0707,82.45 L339.14142,93.3 L330.23233,102.75 L321.32324,110.45 L315.38385,115.35 L313.40405,116.4 L302.0202,118.15 L295.58585,116.75 L294.59595,112.9 L294.59595,104.5 L304,82.1 L309.9394,76.85 L312.9091,74.4 L348.0505,60.05 L350.52524,64.25 L349.53534,72.3 L348.0505,77.2 L338.15152,92.95 L324.29294,109.05 L314.39395,115 L305.48486,117.1 L301.52524,117.1 L297.56564,111.85 L294.59595,106.95 L304.9899,82.1 L319.83838,73 L342.1111,63.2 L346.56564,62.15 L349.0404,63.55 L348.0505,74.05 L346.56564,77.9 L345.57574,80 L342.1111,86.65 L328.25253,104.15 L308.9495,115.7 L304.49496,117.1 L302.0202,116.75 L296.0808,105.9 L298.0606,99.95 L304.9899,83.15 L315.38385,76.5 L319.83838,73.7 L339.63635,64.6 L345.0808,63.2 L348.0505,64.95 L348.0505,69.15 L347.55554,73.7 L343.101,84.55 L331.22223,99.25 L322.80807,106.25 L315.87878,110.8 L302.51514,114.65 L301.0303,114.65 L298.55554,109.75 L298.55554,106.25 L298.55554,102.75 L302.0202,91.2 L305.48486,84.55 L305.9798,83.85 L316.86868,77.2 L340.62625,64.95 L347.55554,69.85 L343.59595,82.1 L339.63635,87.7 L335.18182,93.65 L324.29294,104.5 L317.85858,109.4 L314.39395,111.15 L302.0202,112.55 L300.53534,105.9 L300.0404,103.45 L304.49496,88.4 L305.9798,85.6 L308.45456,82.8 L309.44446,81.75 L335.67676,68.45 L340.62625,66 L346.0707,69.5 L340.13132,85.25 L334.68686,93.3 L332.70706,96.1 L326.27274,102.05 L315.87878,108 L305.9798,110.45 L303.50504,108.35 L302.51514,104.85 L302.0202,101.7 L302.0202,98.2 L304.9899,88.05 L305.9798,85.95 L311.9192,80.7 L339.63635,67.05 L342.1111,71.25 L343.101,73 L342.60605,76.85 L337.65656,88.05 L332.70706,95.05 L328.25253,98.9 L316.37375,107.3 L306.9697,109.05 L303.0101,103.8 L302.51514,101.35 L303.50504,95.05 L304.9899,89.45 L311.42426,81.75 L338.64645,69.15 L340.13132,70.55 L342.1111,76.5 L333.69696,92.95 L327.26263,99.25 L325.28284,101 L319.83838,104.85 L316.37375,106.95 L310.43436,108.35 L304.49496,101.35 L303.50504,99.95 L305.9798,89.8 L307.46466,86.65 L311.9192,83.15 L324.29294,75.8 L338.15152,70.2 L340.62625,72.3 L340.13132,80 L336.17172,87.35 L330.23233,95.75 L324.29294,100.65 L314.8889,106.25 L313.899,106.25 L312.9091,105.9 L306.9697,103.45 L304,98.55 L305.9798,92.95 L310.43436,87 L320.33334,79.65 L326.27274,77.2 L335.67676,75.1 L339.14142,77.2 L340.13132,78.25 L336.66666,85.25 L335.18182,87.7 L329.73737,95.4 L315.38385,104.85 L313.899,105.2 L309.9394,104.5 L304.9899,99.25 L306.9697,92.6 L308.45456,90.15 L316.86868,83.15 L323.79797,78.25 L335.67676,75.8 L336.66666,77.2 L336.66666,84.2 L335.18182,86.3 L325.28284,96.1 L316.37375,104.15 L309.9394,104.15 L307.46466,100.3 L307.46466,98.9 L309.44446,90.15 L320.33334,81.05 L324.29294,78.25 L332.21213,79.3 L333.69696,86.65 L322.80807,98.2 L310.9293,103.8 L310.43436,103.1 L311.42426,95.4 L313.899,89.8 L316.37375,85.25 L320.33334,81.4 L326.76767,79.65 L329.24243,80 L331.22223,81.75 L327.75757,92.25 L321.32324,97.15 L312.9091,97.85 L312.9091,96.1 L314.39395,89.1 L319.83838,82.1 L328.25253,81.05 L327.75757,87.7 L327.26263,90.5 L326.76767,92.95 L318.84848,97.15 L315.38385,97.5 L314.39395,89.45 L317.36365,85.95 L321.81818,84.55 L327.26263,85.6 L324.29294,91.2 L320.82828,95.05 L317.85858,96.1 L317.36365,96.1 L315.38385,91.55 L316.86868,87 L319.34344,86.65 L326.27274,87 L319.34344,92.95 L317.85858,94 L317.36365,92.95 L316.37375,89.45 L317.85858,87.35 L318.35355,88.75 M219.85858,108.35 L255.9899,118.85 L259.45456,127.95 L259.9495,130.05 L215.89899,179.05 L185.70708,176.6 L181.74748,172.75 L184.71718,159.8 L202.0404,112.9 L217.38383,112.2 L222.82828,112.9 L234.70708,120.25 L250.0505,130.75 L250.0505,137.4 L218.86868,163.3 L199.07071,173.1 L184.71718,170.65 L185.21213,159.8 L201.54546,119.55 L221.83838,115 L246.58586,131.45 L245.10101,136.35 L205.0101,167.5 L190.16162,171.35 L188.67677,161.2 L206.9899,121.65 L216.39394,116.4 L224.31313,118.85 L245.59596,134.25 L216.88889,157.35 L194.12122,166.1 L207.9798,131.8 L225.30302,124.1 L237.67677,132.15 L241.63637,135.3 L214.90909,154.55 L200.06061,159.1 L210.9495,134.6 L225.30302,125.5 L229.26262,132.85 L218.37373,149.65 L209.46465,148.25 L214.41414,135.65 L224.80807,127.6 L224.80807,131.8 M46.626263,78.6 L57.515152,81.05 L59,81.75 L63.949493,84.9 L67.41414,88.75 L68.89899,95.05 L68.89899,95.4 L67.90909,97.5 L63.454544,103.45 L60.979797,105.55 L59,106.25 L44.646465,104.5 L30.787878,99.25 L23.363636,95.05 L20.39394,90.85 L28.80808,83.85 L36.232323,80 L45.141415,78.95 L59,82.1 L59.49495,82.45 L66.42424,88.05 L67.90909,91.55 L67.90909,97.15 L65.43434,100.65 L61.969696,104.5 L54.545456,104.5 L44.646465,104.15 L39.20202,102.4 L31.777779,99.6 L29.30303,97.85 L23.363636,93.3 L22.868687,89.8 L25.838385,87.35 L29.30303,84.55 L39.696968,79.65 L45.636364,79.65 L46.626263,79.65 L58.50505,82.1 L64.44444,87.35 L65.92929,88.75 L66.91919,90.5 L67.41414,94.7 L67.41414,95.4 L66.42424,97.85 L62.959595,102.75 L60.979797,104.5 L58.0101,104.5 L47.121212,103.8 L43.161617,103.45 L34.252525,100.3 L30.787878,98.55 L24.848484,93.65 L23.363636,89.45 L24.848484,88.4 L32.767677,83.85 L37.22222,81.4 L47.121212,80.35 L54.545456,81.4 L59,83.15 L65.43434,88.75 L66.42424,90.5 L66.91919,92.6 L64.44444,100.65 L62.464645,103.1 L61.474747,103.45 L54.545456,104.15 L48.11111,103.8 L43.656567,103.1 L33.262627,99.25 L30.292929,96.8 L24.353535,89.8 L29.79798,85.6 L37.71717,82.45 L40.191917,81.75 L46.626263,81.4 L50.585857,81.4 L54.545456,81.75 L56.525253,82.45 L64.93939,89.45 L66.42424,91.2 L64.44444,99.95 L62.959595,102.05 L58.0101,103.8 L38.21212,100.65 L32.272728,97.15 L26.333334,91.2 L25.343435,89.1 L28.80808,86.65 L37.22222,83.15 L47.121212,82.1 L53.060608,82.45 L57.515152,83.85 L65.43434,90.85 L64.44444,98.2 L61.969696,102.4 L52.565655,102.4 L46.131313,101.7 L37.22222,99.95 L32.767677,97.15 L25.838385,90.15 L25.838385,89.8 L35.242424,84.9 L39.20202,83.15 L51.080807,82.45 L54.050507,82.8 L59.49495,87 L63.454544,90.15 L64.93939,91.55 L64.44444,95.75 L62.959595,99.95 L61.969696,102.05 L55.040405,102.05 L49.59596,101.7 L43.161617,101 L39.20202,99.6 L31.282827,94.7 L30.787878,94.35 L29.79798,93.65 L26.828283,90.85 L31.282827,87 L41.67677,83.85 L49.59596,82.8 L52.070705,82.8 L55.040405,84.2 L58.50505,86.3 L63.949493,92.6 L64.44444,95.05 L61.969696,100.3 L60.484848,101.7 L55.040405,101.7 L46.131313,101 L36.727272,97.85 L30.787878,94 L28.313131,90.85 L31.282827,88.05 L34.747475,86.3 L38.70707,84.9 L41.67677,84.2 L48.60606,83.5 L53.555557,84.55 L55.535355,86.3 L59.9899,90.5 L61.474747,92.25 L62.464645,94.7 L62.959595,97.15 L60.484848,100.65 L59,101.7 L55.535355,101.35 L50.090908,100.65 L43.656567,99.6 L36.232323,97.15 L35.242424,96.8 L33.262627,95.4 L31.777779,94 L29.30303,90.5 L32.767677,87.35 L36.727272,85.6 L49.59596,84.2 L50.090908,84.2 L54.050507,85.95 L59.49495,90.15 L60.979797,91.9 L61.969696,94.35 L61.474747,99.25 L60.484848,100.3 L58.0101,100.65 L52.070705,101 L48.60606,100.3 L37.71717,97.5 L33.757576,95.05 L32.767677,94.35 L31.282827,92.25 L30.292929,89.8 L34.252525,87.35 L41.67677,85.25 L49.10101,84.9 L52.070705,85.6 L53.555557,86.3 L60.484848,92.95 L60.979797,99.6 L58.50505,99.95 L51.575756,100.3 L39.20202,97.85 L30.787878,90.15 L44.646465,85.6 L48.60606,85.25 L53.060608,86.3 L58.0101,90.85 L59.9899,94.7 L56.030304,99.95 L53.060608,99.95 L48.60606,99.25 L42.666668,98.2 L40.191917,97.5 L36.232323,95.05 L31.777779,90.85 L32.272728,90.15 L40.68687,87 L48.11111,85.6 L54.545456,87.7 L59.49495,94.7 L56.030304,98.9 L54.545456,99.25 L49.10101,99.25 L38.70707,96.1 L37.22222,94.7 L34.747475,91.55 L36.727272,89.8 L51.575756,87 L55.040405,89.8 L56.030304,92.6 L56.525253,94.7 L56.525253,95.05 L56.030304,98.55 L52.565655,99.25 L47.121212,98.2 L41.18182,96.8 L38.21212,92.95 L36.727272,90.15 L45.636364,89.1 L53.060608,88.4 L54.545456,89.8 L55.535355,92.6 L54.545456,98.55 L52.565655,98.55 L45.636364,97.15 L42.17172,95.75 L39.696968,93.65 L38.70707,92.25 L37.71717,90.15 L44.151516,89.45 L53.060608,88.75 L53.555557,95.05 L49.59596,97.5 L41.67677,94.7 L38.21212,90.15 L52.565655,89.45 L53.060608,91.55 L53.060608,94.35 L51.575756,95.05 L50.090908,95.4 L43.161617,95.05 L39.20202,91.2 L40.68687,90.15 L50.585857,89.8 L53.060608,93.3 L50.090908,95.05 L44.646465,95.05 L39.696968,91.2 L42.17172,90.5 L43.656567,90.15 L51.080807,90.5 L50.090908,93.3 L49.10101,94.7 L46.131313,95.05 L41.18182,91.9 L41.67677,90.85 L47.121212,90.5 L50.585857,90.5 L49.10101,94 L46.626263,94.7 L44.151516,93.65 L43.656567,93.3 L44.646465,91.2 L48.60606,91.55 L49.10101,93.65 L47.121212,93.3 L47.61616,92.25 L48.11111,91.9 M125.818184,281.25 L132.74748,281.6 L136.21213,283 L140.66667,287.55 L139.18182,289.65 L116.41414,289.65 L119.878784,285.45 L120.86869,284.4 L128.29292,282.3 L130.76767,281.95 L136.70708,283.7 L139.67677,287.2 L139.67677,287.55 L138.19193,288.95 L132.25252,288.95 L120.86869,288.95 L118.888885,287.9 L120.37374,285.8 L128.78787,282.3 L135.22223,284.4 L137.69698,286.15 L136.70708,288.6 L123.34344,288.6 L120.86869,287.2 L120.86869,285.8 L127.79798,283 L130.27272,283 L130.76767,283 L134.72728,285.45 L136.70708,286.85 L134.72728,288.6 L132.25252,288.6 L122.84849,287.55 L127.30303,283.35 L129.77777,283.35 L130.76767,283.7 L134.72728,286.15 L135.22223,286.85 L130.76767,287.9 L128.78787,287.9 L123.34344,287.55 L126.80808,284.75 L127.79798,284.4 L131.75757,284.05 L125.323235,287.2 L125.818184,286.5 M154.52525,208.45 L161.45454,209.5 L177.78787,223.5 L179.76767,227 L172.34343,240.65 L162.93939,243.1 L155.0202,243.45 L147.10101,238.55 L140.17172,231.2 L134.72728,218.25 L142.15152,211.25 L146.60606,210.9 L157,210.55 L168.87878,217.2 L171.84848,224.2 L171.84848,235.75 L165.90909,240.3 L154.52525,241.7 L142.15152,232.25 L137.20203,228.05 L137.69698,221.75 L138.19193,220 L142.15152,216.15 L145.61617,213 L149.57576,211.95 L152.54546,211.95 L160.46465,213.35 L162.93939,214.05 L167.88889,216.85 L169.37373,219.65 L169.37373,226.3 L168.38383,231.9 L166.89899,236.8 L164.42424,239.95 L142.64647,230.85 L138.19193,221.75 L144.62627,214.4 L157.9899,214.75 L164.42424,233.65 L161.9495,238.2 L143.63637,229.8 L143.14142,229.45 L142.64647,224.9 L145.12122,218.95 L147.10101,215.8 L156.0101,217.55 L160.46465,230.15 L159.9697,234 L144.62627,229.45 L147.59596,220 L152.54546,218.6 L157.49495,223.5 L159.47475,233.3 L146.11111,229.8 L150.56566,223.15 L157.49495,225.6 M314.39395,224.2 L319.34344,225.6 L326.76767,229.1 L326.76767,232.95 L325.77777,234.35 L323.79797,237.15 L309.9394,255.35 L306.47476,257.1 L303.50504,255 L301.52524,241.7 L302.51514,233.65 L303.50504,231.9 L305.9798,227.7 L311.9192,224.55 L321.32324,227.7 L323.30304,228.4 L325.77777,234 L314.39395,249.4 L310.9293,253.95 L308.45456,255.7 L306.47476,255.35 L303.50504,252.55 L302.51514,247.65 L302.0202,241.35 L303.0101,236.45 L303.50504,234.35 L304,232.25 L309.9394,225.6 L317.36365,227 L321.81818,228.4 L323.30304,229.45 L324.29294,231.55 L324.78787,235.05 L317.85858,244.5 L311.42426,253.25 L308.9495,255 L305.48486,253.25 L302.51514,245.2 L302.51514,243.1 L302.51514,240.65 L305.48486,232.6 L307.46466,229.8 L313.40405,227.35 L315.38385,227 L316.86868,227 L322.31314,228.75 L323.79797,230.85 L323.30304,236.45 L322.31314,238.2 L318.35355,243.8 L309.44446,253.25 L306.47476,251.15 L305.48486,249.75 L303.0101,241.35 L303.50504,238.2 L308.45456,229.45 L318.84848,227.7 L321.81818,228.75 L322.80807,230.5 L323.30304,232.6 L322.80807,235.75 L318.35355,243.1 L311.42426,250.8 L309.9394,251.85 L308.45456,251.5 L306.9697,250.8 L304.9899,247.3 L304.49496,246.25 L304.9899,238.2 L305.9798,234.35 L309.44446,229.45 L318.35355,228.05 L321.32324,231.2 L321.81818,232.25 L321.81818,236.8 L319.83838,240.3 L310.9293,250.1 L310.43436,250.45 L308.45456,250.1 L307.46466,249.4 L305.48486,242.4 L305.48486,237.5 L306.9697,232.95 L312.41415,229.45 L315.87878,230.15 L318.84848,231.55 L320.82828,236.1 L318.84848,240.65 L312.9091,247.65 L311.9192,248.35 L309.9394,249.05 L307.46466,245.9 L306.9697,244.85 L306.9697,234 L310.43436,230.85 L317.36365,231.2 L319.34344,234.35 L318.84848,237.5 L317.36365,240.65 L313.899,245.55 L310.9293,248.35 L310.43436,248.7 L307.9596,245.2 L306.9697,239.6 L307.9596,234.35 L309.44446,232.95 L312.41415,231.2 L317.36365,231.9 L317.85858,232.25 L318.84848,234.35 L315.87878,241.7 L314.8889,243.1 L313.40405,244.5 L308.9495,246.25 L307.46466,239.95 L307.46466,237.85 L307.9596,235.75 L309.44446,233.3 L314.8889,232.95 L317.36365,234 L316.86868,236.1 L314.8889,240.65 L314.39395,241.7 L313.40405,243.1 L311.42426,244.5 L307.46466,239.6 L308.9495,235.05 L312.9091,234 L314.8889,233.65 L316.86868,234.7 L315.87878,238.2 L312.9091,242.75 L311.42426,242.4 L308.9495,239.6 L308.45456,238.2 L312.41415,234.7 L316.37375,236.1 L314.39395,239.25 L311.42426,240.3 L309.9394,238.55 L309.44446,237.5 L310.43436,236.8 L314.8889,235.75 L314.8889,236.1 L313.40405,238.9 L312.9091,239.25 L310.43436,238.9 L311.9192,236.45 L311.9192,236.8 M227.77777,273.2 L232.23233,273.55 L234.70708,276.7 L233.22223,284.05 L231.24243,288.95 L229.26262,289.65 L224.80807,289.65 L208.47475,289.3 L204.51515,288.6 L206.49495,286.15 L213.91919,279.15 L215.89899,277.75 L222.33333,273.9 L228.76767,273.55 L232.72728,277.75 L233.22223,279.15 L232.72728,284.4 L231.73738,286.85 L229.75757,288.95 L225.30302,288.95 L210.9495,288.6 L206.49495,287.9 L206.49495,287.55 L210.45454,283 L215.40404,278.8 L222.33333,274.6 L223.81818,273.9 L230.25252,276 L232.72728,279.5 L232.72728,284.05 L231.73738,286.5 L230.74748,286.85 L222.82828,288.6 L214.90909,288.6 L208.47475,286.5 L210.45454,284.4 L217.38383,278.1 L223.32323,274.6 L223.81818,274.6 L230.25252,276.7 L232.23233,280.55 L232.72728,281.6 L230.74748,285.8 L226.78787,287.55 L217.87878,288.6 L213.91919,288.25 L212.43434,287.55 L210.45454,285.45 L212.43434,283.35 L213.42424,282.3 L221.83838,276.35 L223.81818,276 L225.30302,276 L228.76767,277.75 L230.74748,279.15 L230.74748,279.85 L229.75757,284.05 L225.79797,286.85 L220.84848,287.9 L214.90909,287.2 L210.9495,285.1 L212.43434,283.7 L215.89899,280.9 L221.34343,277.05 L223.32323,277.4 L224.80807,277.75 L230.74748,279.5 L227.77777,285.45 L218.37373,286.85 L214.90909,286.15 L214.41414,285.45 L214.41414,284.4 L214.90909,283 L216.39394,281.6 L220.84848,277.75 L225.79797,278.1 L227.28282,280.9 L227.28282,282.65 L226.29292,284.05 L223.81818,285.45 L217.38383,285.8 L214.90909,285.45 L217.38383,282.3 L217.87878,281.95 L226.29292,280.2 L225.79797,282.3 L224.80807,284.75 L220.35353,285.45 L217.38383,285.45 L215.89899,285.1 L216.88889,283 L222.33333,281.6 L223.32323,283.35 L221.34343,284.4 L218.37373,285.1 L216.88889,284.05 L217.87878,283 L220.84848,282.3 L219.85858,284.05 L217.38383,284.05 L217.38383,283.7 L217.87878,283.35 L219.36363,283 M322.31314,278.45 L324.78787,278.45 L329.24243,280.2 L332.70706,285.45 L332.70706,286.85 L331.71716,287.9 L330.72726,288.6 L325.28284,289.3 L323.79797,289.3 L319.83838,286.5 L319.83838,285.45 L319.83838,285.1 L319.83838,284.05 L321.32324,279.85 L323.30304,278.45 L325.28284,278.8 L328.25253,279.85 L328.74747,280.55 L331.71716,286.15 L331.71716,286.85 L330.23233,288.6 L325.28284,288.95 L321.32324,286.85 L321.32324,280.9 L323.30304,279.15 L324.78787,278.8 L326.76767,279.5 L329.24243,281.25 L329.73737,283 L330.72726,287.9 L326.76767,288.6 L321.32324,285.45 L321.32324,283.7 L321.81818,281.6 L324.78787,279.5 L329.24243,281.95 L329.73737,285.45 L329.73737,287.2 L328.25253,287.9 L325.77777,287.55 L321.81818,284.05 L324.29294,279.85 L327.75757,281.25 L329.24243,282.65 L328.25253,285.8 L327.26263,286.85 L324.78787,285.1 L322.80807,283.35 L324.78787,280.55 L327.26263,283 M405.46466,280.2 L405.46466,288.95 L404.47476,289.3 L402.49496,289.65 L402,289.65 L396.0606,289.65 L394.0808,289.65 L396.55554,286.15 L398.53534,283.7 L401.50504,282.3 L403.9798,281.25 L404.9697,281.6 L405.46466,282.65 L404.9697,285.8 L404.47476,288.6 L403.9798,289.3 L398.53534,288.95 L398.53534,285.8 L399.52524,283.7 L404.47476,281.6 L403.48486,288.95 L398.53534,288.6 L403.48486,284.4 L403.48486,285.1 L403.48486,288.25 L401.50504,288.25 L401.50504,287.2" fill="none" stroke="#000" stroke-width="0.2"/>
<path d="m 15.815664,12.893319 c -1.445284,-3.0999497 -5.555449,-0.3575 -5.08537,2.32203 1.697826,2.92736 4.504013,-3.54417 4.40859,-2.58178 -1.548999,2.22986 0.741131,6.08701 3.012419,3.25791 2.532153,-2.82358 0.259001,-7.8326797 -3.488671,-7.9011197 -3.217272,0.056 -5.8863857,2.4603197 -7.9308737,4.7238797 -2.354585,2.46752 0.0048,5.887 2.757763,6.62143 3.2195457,1.10867 6.8759417,1.30834 9.9459317,-0.36585 2.270396,-1.12373 5.025949,-2.62031 5.680576,-5.20027 -2.108811,-3.66096 -6.038415,1.28356 -3.842036,3.67822 1.07278,0.89979 4.586982,-2.27037 3.201668,-2.73503 0.03094,3.24357 1.226854,6.37852 1.337023,9.60311 -0.672198,3.54892 -7.469251,0.32096 -4.637082,-2.5164 2.158436,-2.4193 5.610472,-2.84094 8.202925,-4.57369 0.993877,-1.40371 0.353413,-5.25046 3.182464,-3.48957 2.142923,1.43516 -2.250898,5.7532 1.723416,5.02339 1.661189,-0.71663 6.494946,-1.40457 4.601401,-3.95236 -4.205319,-0.68052 -1.190571,5.86505 1.665411,3.46881 1.929752,-0.9247 2.778055,-4.05119 1.423645,-5.35034 0.479155,1.8589 3.849911,7.52574 4.880369,3.32696 0.21201,-1.28088 0.40468,-3.80204 1.01246,-1.23041 0.5858,2.6865 3.83412,4.91909 4.56937,1.07383 0.65272,-1.00894 -0.2696,-4.02739 0.99929,-1.35746 1.10974,2.31613 6.32001,1.46113 6.147,-1.13059 -1.98394,-2.13868 -5.3717,1.45205 -3.78252,3.73454 2.57741,0.96208 6.69797,-0.21041 7.06275,-3.33983 0.41287,-2.63769 0.26643,-5.3430297 -0.11178,-7.9756197 0.67418,3.94149 1.24889,7.9380497 2.39963,11.7713397 2.10586,1.67977 5.7434,1.65022 7.74596,-0.23639 3.03149,-1.85431 -0.26637,-4.76925 -2.71777,-4.54025 -2.11577,0.0793 -5.36257,2.40772 -5.16868,3.85604 2.08262,-2.38818 5.55759,-1.22628 8.30726,-1.6832 3.182,-0.26596 6.46546,-0.57372 9.54494,-1.18158 0.24171,0.4199 -0.27752,0.54338 -0.43067,0.17453" fill="none" stroke="black" stroke-width="1" transform="translate(380,280) scale(0.3)"/>
</svg>