<svg height="297mm" style="background: white" viewBox="0 0 420 297" width="420mm" xmlns="http://www.w3.org/2000/svg" xmlns:inkscape="http://www.inkscape.org/namespaces/inkscape">
<path d="M174.81818,284.4 L179.76767,284.4 L186.69698,287.2 L188.67677,288.6 L182.73738,289.3 L167.88889,289.65 L165.90909,289.3 L172.83838,285.8 L179.27272,284.75 L186.69698,287.55 L181.25252,289.3 L171.35353,289.3 L167.88889,289.3 L168.38383,288.6 L172.34343,286.15 L178.28282,285.45 L181.25252,285.8 L186.20203,287.55 L180.26262,289.3 L172.34343,288.95 L169.37373,288.25 L179.76767,285.8 L180.26262,286.85 L178.77777,287.55 L175.31313,288.25 L176.30302,287.55 L178.28282,286.85 L177.78787,287.2 L176.79797,287.55 M357.45456,175.9 L361.9091,176.95 L365.37375,178.35 L391.60605,252.2 L387.64645,257.1 L364.87878,284.75 L362.40405,287.2 L359.43436,288.95 L358.9394,288.95 L352.0101,288.25 L332.21213,285.8 L321.32324,282.3 L255,256.75 L259.45456,243.45 L354.48486,181.15 L362.899,179.4 L366.85858,185.35 L387.15152,252.9 L363.8889,282.65 L353,288.25 L334.68686,285.8 L333.20203,285.45 L330.23233,284.4 L270.83838,259.9 L265.39395,253.6 L266.87878,248.35 L353.9899,182.55 L362.40405,180.1 L365.37375,186.05 L385.66666,250.1 L381.21213,257.1 L365.37375,279.15 L358.9394,284.4 L356.46466,286.15 L350.52524,287.9 L329.73737,283.7 L326.27274,282.65 L317.85858,279.15 L272.32324,258.85 L268.36365,247.65 L351.0202,185 L353.49496,183.25 L362.899,181.5 L363.8889,183.25 L365.37375,187.45 L385.17172,250.45 L362.899,280.9 L353.9899,285.45 L346.0707,286.85 L326.76767,282.3 L275.29294,256.05 L275.29294,249.75 L276.77777,243.8 L348.0505,188.85 L356.9596,185.7 L360.9192,190.95 L381.21213,251.5 L380.71716,254.3 L380.22223,257.1 L359.9293,281.6 L354.9798,284.05 L346.56564,284.75 L338.64645,283.7 L329.24243,281.6 L317.85858,277.4 L282.71716,252.55 L351.51514,192.7 L359.9293,190.6 L380.22223,251.15 L378.73737,258.15 L369.33334,270.05 L363.39395,275.3 L357.9495,279.85 L353,282.3 L338.64645,283.35 L322.31314,278.1 L317.36365,275.65 L292.61615,259.55 L293.1111,255 L351.51514,195.5 L354.9798,193.4 L356.46466,194.1 L379.23233,248.35 L378.73737,252.2 L377.25253,259.2 L365.86868,271.45 L358.44446,278.1 L355.47476,280.55 L346.56564,282.65 L343.59595,282.65 L337.65656,282.65 L329.73737,280.2 L320.33334,276.35 L299.54544,259.55 L333.69696,218.25 L353,195.5 L376.75757,250.45 L376.26263,257.45 L374.77777,260.6 L363.8889,273.2 L353,280.9 L344.58585,282.65 L337.16162,281.95 L329.24243,279.85 L319.34344,274.95 L318.35355,274.25 L300.53534,259.55 L334.68686,217.2 L352.50504,198.65 L373.78787,251.85 L375.27274,258.5 L373.29294,260.95 L363.39395,272.85 L359.43436,276 L354.9798,277.4 L342.60605,280.9 L342.1111,280.9 L329.73737,279.15 L327.75757,278.45 L316.37375,272.15 L316.86868,269 L325.77777,230.5 L330.72726,222.8 L338.15152,213.7 L345.0808,208.1 L347.0606,208.45 L352.0101,210.55 L373.29294,250.8 L374.28284,258.5 L363.39395,272.5 L349.0404,278.8 L342.60605,280.2 L330.23233,277.4 L322.31314,274.6 L316.86868,270.05 L329.24243,225.6 L340.13132,218.25 L348.0505,215.1 L353,214.4 L373.78787,256.75 L369.33334,264.45 L363.8889,271.45 L344.0909,279.85 L343.101,279.85 L338.64645,279.15 L322.31314,273.9 L321.81818,273.2 L320.33334,269.35 L319.83838,267.25 L328.74747,233.3 L335.18182,221.75 L337.65656,221.05 L341.61615,220 L351.51514,221.4 L354.48486,223.5 L368.83838,248.35 L370.81818,259.2 L370.81818,260.6 L370.81818,261.3 L363.39395,270.4 L350.52524,276.7 L341.12122,278.45 L337.16162,277.4 L327.75757,274.6 L323.79797,272.5 L322.80807,269.35 L321.81818,264.45 L328.25253,235.4 L333.20203,225.6 L337.65656,222.1 L348.0505,221.4 L349.53534,222.1 L368.83838,250.1 L369.33334,252.9 L365.86868,266.9 L360.9192,271.45 L352.0101,273.9 L331.22223,274.95 L327.26263,273.9 L324.78787,264.1 L328.25253,238.9 L330.23233,234.7 L334.68686,226.3 L344.0909,223.15 L349.0404,223.5 L350.0303,224.55 L353.49496,229.1 L366.85858,249.75 L368.34344,252.55 L367.35355,256.4 L364.87878,265.85 L363.8889,267.25 L355.9697,272.5 L340.13132,274.25 L330.72726,273.9 L329.24243,272.85 L327.26263,271.1 L326.27274,267.25 L330.23233,239.95 L332.70706,232.25 L334.68686,230.15 L341.61615,225.95 L342.1111,225.95 L350.0303,225.95 L365.37375,248 L367.35355,255 L365.37375,262.35 L362.899,267.25 L357.45456,269.7 L337.65656,273.9 L330.72726,270.4 L327.26263,268.3 L327.26263,263.75 L331.22223,237.15 L338.15152,228.75 L343.59595,226.3 L351.51514,228.4 L365.37375,250.8 L364.38385,255.35 L361.9091,264.1 L357.45456,268.3 L350.52524,271.1 L347.0606,271.8 L341.12122,271.1 L331.71716,269 L327.26263,267.95 L327.26263,267.6 L327.75757,264.1 L334.19193,238.55 L341.12122,227.7 L344.0909,228.75 L351.51514,233.65 L362.40405,247.3 L363.8889,249.4 L363.39395,252.9 L361.9091,257.8 L360.9192,260.95 L350.0303,267.95 L349.0404,268.3 L328.25253,267.95 L328.74747,262.35 L335.18182,238.2 L335.67676,237.15 L336.66666,235.75 L344.0909,231.2 L350.0303,234.7 L353.9899,237.15 L360.9192,245.9 L363.39395,252.55 L361.41415,256.4 L356.46466,262.7 L348.54544,265.15 L335.18182,267.25 L328.74747,267.25 L335.67676,242.4 L338.15152,235.4 L349.53534,235.05 L351.0202,235.75 L357.9495,245.55 L356.9596,259.55 L355.9697,260.95 L347.0606,264.1 L332.21213,264.8 L339.14142,237.5 L350.0303,235.75 L352.50504,238.55 L354.9798,248.35 L356.46466,259.9 L353.9899,261.3 L350.0303,262.7 L339.63635,262.35 L338.15152,246.6 L338.64645,241.35 L341.12122,238.9 L352.0101,238.2 L353.9899,246.25 L355.47476,254.65 L353.49496,257.45 L349.0404,260.95 L344.58585,262.35 L342.60605,261.3 L339.14142,242.4 L347.0606,240.65 L350.52524,241 L354.48486,251.15 L351.51514,257.1 L347.0606,259.55 L345.0808,260.6 L339.63635,244.15 L349.53534,241.7 L353,253.25 L347.55554,257.8 L344.0909,247.3 L345.57574,243.1 L349.53534,242.75 L352.0101,250.1 L350.0303,254.65 L346.0707,246.6 L345.57574,245.55 L348.0505,248.7 M114.43434,13.85 L119.383835,14.2 L240.64647,24 L253.51515,29.25 L229.26262,134.95 L163.43434,184.65 L154.52525,167.5 L107.50505,18.4 L120.37374,15.25 L127.79798,15.95 L237.18182,26.8 L240.64647,30.65 L245.10101,44.3 L219.85858,138.1 L164.91919,172.75 L159.9697,172.05 L110.969696,22.25 L115.91919,19.8 L157.49495,19.8 L233.22223,27.85 L239.65657,37.3 L243.61617,43.95 L219.85858,135.3 L218.86868,137.75 L206.49495,143.35 L161.45454,161.55 L112.94949,23.3 L113.93939,22.25 L116.90909,20.5 L133.73738,20.15 L161.9495,20.5 L227.28282,33.8 L240.64647,39.4 L241.14142,46.05 L240.64647,48.5 L218.86868,133.55 L215.40404,138.8 L163.43434,159.8 L160.9596,153.85 L125.323235,23.65 L148.58586,21.9 L223.81818,36.95 L235.20203,40.45 L237.18182,41.5 L238.66667,44.3 L238.66667,55.15 L214.90909,134.6 L211.44444,139.15 L207.48485,141.6 L200.55556,144.75 L163.92929,157.7 L126.31313,24 L128.78787,23.65 L136.21213,23.3 L149.08081,24 L166.40404,25.75 L233.22223,40.45 L236.19193,62.85 L216.88889,126.9 L213.42424,136 L201.54546,143.7 L197.58586,145.45 L181.25252,150.35 L168.38383,151.05 L164.91919,146.85 L151.06061,79.65 L145.12122,31.35 L151.06061,24.35 L156.50505,25.4 L169.86868,28.55 L229.26262,50.25 L233.22223,62.15 L212.92929,136 L209.9596,137.75 L181.25252,149.65 L169.37373,149.3 L153.53535,88.75 L151.55556,78.25 L148.58586,40.8 L151.06061,30.3 L156.50505,25.75 L223.32323,49.2 L229.26262,51.65 L213.91919,127.6 L208.9697,135.3 L190.65657,144.4 L171.84848,147.55 L158.48485,91.55 L153.53535,66 L151.06061,42.2 L153.0404,33.8 L154.0303,29.95 L162.93939,28.55 L215.40404,48.85 L226.78787,56.2 L226.29292,61.1 L213.91919,126.2 L192.63637,143.35 L179.27272,140.2 L170.36363,133.9 L156.0101,75.45 L152.0505,47.45 L153.0404,34.15 L155.0202,29.95 L172.34343,33.8 L215.40404,54.45 L219.85858,56.9 L223.32323,67.75 L211.44444,127.95 L193.62627,140.9 L183.23233,140.55 L170.36363,115.7 L159.9697,88.75 L154.0303,57.95 L154.0303,55.15 L155.0202,33.8 L169.37373,34.85 L215.40404,57.95 L216.88889,59.7 L217.87878,68.8 L210.45454,126.9 L203.52525,131.45 L185.70708,139.15 L179.27272,128.3 L172.34343,113.25 L162.44444,87.35 L158.48485,76.85 L155.0202,60.05 L155.0202,45.35 L157.49495,34.15 L171.35353,36.25 L175.80807,38.7 L206.49495,56.2 L214.41414,61.45 L209.9596,121.65 L205.50505,126.2 L195.60606,133.55 L189.66667,136.7 L185.21213,137.4 L178.77777,125.15 L172.83838,113.6 L166.89899,96.8 L159.47475,74.4 L157.49495,61.8 L156.50505,49.9 L158.9798,40.1 L160.46465,35.9 L161.9495,35.9 L176.79797,41.15 L203.0303,54.8 L208.9697,57.95 L213.42424,61.8 L213.91919,67.4 L208.9697,120.6 L195.60606,133.2 L189.17172,136 L180.75757,127.25 L179.76767,125.5 L178.28282,122.35 L168.87878,102.05 L165.41414,92.25 L158.48485,66 L157.49495,47.8 L157.9899,45.35 L161.45454,36.6 L165.41414,38 L178.28282,43.6 L211.93939,62.85 L213.42424,64.25 L212.92929,69.85 L202.0404,123.75 L197.58586,126.2 L190.65657,128.65 L184.71718,129.35 L180.26262,123.4 L171.35353,107.65 L160.9596,74.05 L159.47475,66.7 L158.48485,61.45 L161.45454,46.4 L165.90909,38.7 L198.57576,55.5 L210.9495,64.6 L202.53535,116.75 L200.55556,120.6 L195.60606,125.85 L190.16162,126.55 L171.84848,107.65 L164.42424,84.55 L161.9495,75.45 L160.9596,71.6 L160.46465,66 L162.44444,50.25 L166.40404,40.45 L168.38383,41.15 L184.71718,48.5 L201.0505,57.6 L205.0101,62.5 L204.51515,66.7 L198.08081,118.15 L196.59596,123.75 L173.82828,107.3 L171.35353,103.45 L166.40404,87.35 L162.44444,65.65 L162.44444,50.6 L166.40404,41.15 L184.22223,48.5 L203.0303,64.6 L196.10101,123.05 L194.61617,122 L180.26262,111.5 L177.78787,109.4 L173.82828,103.1 L170.36363,95.75 L167.88889,86.3 L162.93939,65.65 L162.44444,53.05 L163.92929,49.55 L168.87878,44.3 L173.33333,44.3 L190.16162,54.1 L197.09091,61.45 L200.55556,71.25 L196.10101,110.1 L194.61617,117.8 L188.18182,116.75 L186.20203,115.35 L173.33333,102.05 L169.37373,89.1 L166.40404,71.25 L167.39394,52.7 L170.36363,50.25 L174.32323,47.45 L183.23233,51.65 L194.61617,60.05 L199.07071,72.3 L192.14142,112.55 L189.17172,115.7 L173.82828,101.35 L167.39394,76.85 L166.89899,72.65 L169.86868,58.65 L174.32323,50.95 L175.80807,48.85 L189.66667,57.6 L190.65657,59 L193.13132,63.2 L194.61617,67.75 L189.66667,111.15 L178.28282,99.25 L170.85858,83.15 L170.36363,64.25 L170.36363,62.5 L173.33333,57.95 L179.76767,51.65 L186.69698,56.55 L192.63637,68.8 L192.14142,76.15 L189.66667,104.5 L188.18182,107.65 L187.19193,107.3 L178.28282,97.15 L173.82828,87.7 L171.84848,69.85 L173.33333,65.3 L174.32323,62.5 L181.74748,56.9 L183.23233,56.2 L191.15152,69.5 L192.14142,71.95 L180.75757,99.6 L174.32323,83.5 L173.33333,76.15 L172.83838,67.05 L183.23233,56.9 L183.72728,57.6 L190.16162,68.1 L190.16162,71.25 L181.25252,97.5 L179.27272,90.85 L175.31313,74.75 L177.29292,65.65 L183.23233,61.45 L185.21213,64.95 L185.21213,74.75 L183.72728,87.7 L181.25252,94 L179.76767,91.9 L177.78787,84.55 L176.30302,76.15 L176.30302,71.95 L183.23233,62.5 L184.71718,78.6 L180.26262,85.25 L177.78787,78.6 L182.73738,69.5 L182.73738,74.4 L182.24243,81.4 L182.24243,71.25 M187.68687,112.9 L219.85858,139.85 L224.31313,186.75 L224.31313,187.45 L222.33333,197.6 L205.0101,230.5 L202.0404,231.9 L198.57576,232.6 L161.9495,226.65 L150.56566,221.75 L155.51515,165.75 L161.45454,151.75 L167.39394,141.95 L192.14142,119.2 L214.41414,136 L223.81818,187.8 L208.9697,218.6 L204.51515,226.3 L195.11111,229.45 L163.92929,226.65 L153.0404,217.2 L155.51515,176.25 L160.46465,158.4 L179.76767,131.45 L182.73738,128.65 L200.55556,127.95 L211.44444,134.25 L213.42424,139.5 L220.35353,185 L217.38383,197.95 L211.44444,212.65 L203.52525,221.05 L200.06061,223.5 L181.74748,226.65 L162.93939,223.85 L161.45454,221.4 L157.9899,214.05 L158.48485,179.4 L180.75757,133.55 L196.10101,132.85 L218.86868,184.65 L217.87878,195.5 L209.46465,212.65 L206.49495,217.9 L198.57576,223.5 L188.18182,223.85 L174.81818,224.2 L165.90909,215.45 L162.44444,196.9 L160.9596,180.45 L162.44444,173.45 L178.28282,143 L195.60606,145.45 L217.87878,187.1 L215.40404,196.2 L214.41414,198.3 L210.45454,203.9 L197.09091,221.05 L181.25252,223.5 L179.27272,222.8 L170.36363,211.6 L167.88889,203.9 L164.91919,183.25 L166.40404,167.15 L181.74748,149.3 L209.46465,188.85 L213.91919,196.55 L210.9495,201.1 L202.0404,214.4 L189.17172,217.55 L176.79797,218.95 L165.41414,180.1 L166.40404,174.5 L169.86868,164.35 L206.49495,186.05 L209.46465,197.95 L205.0101,207.05 L180.26262,217.9 L176.30302,212.65 L165.90909,178 L205.0101,194.45 L206.49495,197.25 L203.0303,207.05 L198.08081,196.2 M305.48486,88.4 L307.9596,88.75 L314.8889,90.15 L318.84848,92.25 L327.75757,105.9 L330.72726,110.8 L332.70706,114.65 L334.19193,121.3 L326.27274,161.9 L323.30304,163.65 L317.36365,166.8 L316.37375,167.15 L305.48486,169.6 L299.0505,166.8 L296.57574,163.65 L295.0909,158.75 L289.64645,108.35 L292.12122,100.65 L299.0505,93.3 L302.0202,91.2 L305.48486,90.85 L313.40405,90.15 L318.35355,92.6 L322.80807,98.9 L330.72726,111.85 L332.70706,119.55 L332.70706,123.05 L332.21213,127.6 L327.26263,154.55 L325.28284,159.45 L316.86868,166.8 L313.899,167.5 L304,168.55 L301.0303,167.15 L297.56564,161.55 L296.57574,157.7 L291.62625,109.75 L292.12122,106.25 L293.60605,102.4 L300.0404,92.25 L302.0202,90.15 L316.37375,91.9 L318.35355,92.95 L323.30304,101 L329.73737,113.6 L332.21213,120.6 L332.21213,126.9 L327.75757,148.25 L325.77777,157 L325.28284,158.4 L316.86868,164 L312.41415,166.8 L302.0202,167.5 L301.0303,166.8 L298.55554,160.5 L292.12122,108 L292.61615,105.9 L298.0606,96.1 L300.0404,93.65 L302.0202,91.9 L306.9697,92.25 L311.9192,93.65 L319.34344,96.45 L320.33334,97.15 L322.80807,101 L330.23233,116.4 L331.22223,128.65 L327.75757,145.8 L326.27274,151.05 L322.31314,159.8 L317.36365,163.65 L312.41415,165.75 L310.9293,165.75 L303.50504,165.75 L300.53534,161.9 L293.1111,111.15 L295.0909,102.75 L302.51514,92.6 L314.39395,95.4 L318.84848,96.45 L323.30304,103.1 L326.76767,110.45 L328.25253,117.45 L330.23233,127.95 L329.73737,134.25 L325.77777,155.6 L320.33334,161.2 L318.35355,161.9 L309.44446,164.7 L303.50504,165.4 L301.0303,161.9 L293.60605,109.75 L298.0606,99.95 L299.0505,98.2 L303.0101,94.7 L312.41415,95.4 L319.83838,98.55 L322.80807,102.75 L327.26263,114.65 L329.24243,123.4 L329.73737,126.9 L329.73737,133.2 L325.77777,151.05 L323.30304,155.95 L316.37375,162.25 L313.899,162.95 L304,162.25 L301.52524,159.45 L299.54544,151.4 L295.58585,116.75 L297.56564,105.2 L298.55554,99.95 L308.9495,95.4 L319.83838,102.05 L327.26263,115 L328.25253,122.35 L328.74747,134.95 L328.25253,137.4 L325.28284,151.05 L323.30304,154.2 L315.87878,160.15 L305.48486,161.2 L302.0202,158.75 L301.0303,154.9 L300.53534,152.1 L297.56564,121.65 L297.56564,106.95 L298.55554,100.65 L307.46466,96.8 L311.42426,97.5 L317.85858,102.75 L320.33334,105.9 L327.26263,116.05 L327.75757,127.25 L327.75757,131.1 L326.76767,143.35 L325.77777,147.9 L324.78787,151.75 L315.87878,158.4 L311.42426,159.8 L309.44446,159.45 L308.9495,159.1 L302.51514,148.6 L297.56564,119.55 L298.0606,113.95 L299.54544,103.8 L300.0404,101.35 L309.44446,97.85 L312.41415,98.55 L317.36365,103.1 L327.26263,118.85 L326.76767,140.55 L325.28284,147.55 L323.30304,152.8 L315.87878,156.65 L310.43436,159.1 L308.9495,158.05 L304.9899,152.45 L304,147.55 L302.0202,130.05 L301.0303,117.1 L300.0404,102.4 L307.9596,100.3 L313.899,99.95 L319.83838,108.7 L325.28284,116.75 L326.76767,130.75 L326.27274,138.1 L323.30304,150 L321.81818,151.75 L313.40405,157 L309.9394,158.4 L306.9697,154.9 L304.49496,148.6 L303.50504,138.8 L301.0303,112.55 L301.0303,106.95 L302.51514,103.1 L308.9495,103.45 L319.34344,108.35 L324.29294,117.45 L326.27274,136.7 L324.29294,145.8 L322.80807,147.9 L318.35355,152.8 L316.37375,154.55 L311.42426,157.35 L306.9697,153.15 L304.49496,148.25 L302.0202,118.85 L302.51514,106.95 L304,103.8 L306.47476,103.45 L307.46466,103.45 L316.86868,108.7 L322.80807,115 L324.29294,118.5 L324.78787,137.05 L324.29294,144.75 L321.32324,148.25 L314.39395,156.3 L309.9394,155.6 L305.48486,149.3 L302.51514,120.25 L302.51514,118.15 L303.0101,111.5 L305.9798,103.8 L309.44446,105.2 L317.85858,111.15 L322.31314,115 L323.79797,118.5 L324.29294,128.3 L324.29294,141.6 L323.30304,143.7 L318.35355,151.4 L312.9091,154.9 L309.44446,153.85 L308.9495,152.8 L305.48486,145.45 L304.9899,128.65 L304.9899,111.85 L307.46466,106.25 L317.85858,112.9 L320.33334,115 L323.30304,120.95 L323.30304,132.85 L323.30304,134.95 L320.82828,143 L317.36365,151.75 L313.40405,151.4 L306.9697,147.55 L305.48486,144.05 L304.9899,120.95 L307.46466,108 L307.9596,107.65 L308.9495,107.65 L317.85858,115 L320.82828,117.45 L322.31314,120.95 L322.80807,136 L317.36365,150 L307.46466,145.45 L306.47476,140.55 L305.48486,121.65 L307.46466,108.35 L309.44446,108.7 L320.33334,117.1 L320.82828,118.15 L321.32324,120.6 L321.81818,125.85 L321.32324,138.45 L318.35355,146.15 L314.39395,147.55 L311.42426,146.85 L306.47476,139.5 L305.9798,129 L309.44446,115 L314.39395,112.55 L320.82828,120.95 L321.32324,123.75 L321.32324,135.3 L318.84848,144.75 L314.39395,145.8 L312.41415,145.45 L309.44446,143.35 L308.9495,140.55 L308.45456,124.1 L310.43436,115.35 L315.87878,115.7 L320.33334,120.6 L318.84848,144.05 L316.86868,145.1 L312.41415,141.95 L310.9293,140.55 L309.44446,138.8 L308.9495,137.75 L308.9495,137.05 L309.9394,118.5 L318.84848,120.25 L318.84848,141.6 L315.38385,144.05 L312.41415,139.5 L309.44446,132.5 L310.43436,126.2 L311.9192,119.9 L314.8889,120.95 L318.84848,124.1 L318.84848,138.45 L318.84848,138.8 L316.37375,143 L313.40405,136 L313.40405,134.95 L313.40405,129.7 L313.899,124.1 L316.86868,125.15 L318.35355,128.65 L318.35355,137.4 L317.36365,138.45 L315.38385,134.6 L314.39395,130.75 M377.25253,108.35 L380.71716,109.75 L385.17172,112.55 L388.63635,115.35 L393.0909,119.9 L394.57574,122 L394.57574,125.5 L394.57574,126.2 L391.1111,129.7 L386.16162,134.25 L383.19193,136.7 L378.73737,140.2 L374.28284,143.35 L373.29294,143.7 L371.80807,144.05 L371.31314,144.05 L364.87878,139.5 L361.9091,134.95 L359.9293,130.05 L359.43436,123.4 L360.42426,119.55 L361.9091,116.75 L363.39395,115 L367.35355,111.15 L376.75757,109.05 L381.21213,110.8 L382.69696,111.5 L384.67676,112.55 L391.1111,118.15 L394.0808,121.65 L394.57574,122.7 L393.0909,127.6 L381.21213,138.8 L374.28284,143 L369.33334,141.95 L365.86868,139.85 L361.41415,133.2 L359.9293,127.95 L361.41415,119.55 L364.38385,115 L366.36365,113.6 L376.26263,109.75 L381.70706,111.5 L387.15152,115.7 L393.58585,121.3 L393.58585,123.75 L393.0909,126.55 L387.64645,132.5 L381.70706,137.05 L379.72726,138.45 L375.27274,141.25 L373.78787,141.95 L370.81818,141.95 L366.85858,140.2 L361.41415,129.35 L361.41415,122.7 L361.41415,120.6 L362.899,117.8 L365.37375,115.7 L367.84848,114.3 L371.80807,113.25 L380.71716,112.55 L381.21213,112.55 L386.65656,115.35 L392.59595,121.3 L393.0909,122.7 L392.59595,125.15 L386.16162,133.55 L377.74747,139.5 L373.29294,141.25 L372.30304,141.6 L370.81818,141.6 L369.82828,141.25 L369.33334,140.9 L365.37375,136.35 L364.38385,134.95 L363.8889,132.5 L361.9091,120.95 L362.899,118.5 L367.35355,115.7 L372.79797,113.95 L378.73737,112.9 L381.70706,113.25 L387.64645,116.4 L390.12122,119.2 L391.1111,120.95 L392.101,124.45 L388.63635,130.05 L387.64645,131.45 L379.72726,138.1 L374.28284,140.55 L369.82828,140.55 L367.84848,138.8 L365.37375,133.9 L363.39395,129 L362.899,125.5 L363.39395,120.25 L364.38385,119.2 L370.32324,115 L372.79797,114.3 L380.71716,113.6 L381.21213,113.6 L387.64645,116.75 L391.60605,123.05 L389.62625,128.3 L382.69696,135.3 L373.29294,140.2 L372.30304,140.2 L370.81818,139.5 L365.86868,134.25 L363.8889,127.95 L363.39395,125.5 L363.39395,124.1 L363.39395,123.05 L366.36365,119.55 L369.82828,117.1 L374.77777,115 L380.22223,113.95 L386.65656,116.75 L390.61615,121.65 L390.61615,124.45 L388.63635,128.3 L383.68686,134.25 L381.21213,136 L373.78787,139.85 L369.33334,138.8 L365.37375,130.75 L363.8889,127.25 L363.8889,126.9 L364.87878,124.1 L367.84848,119.2 L372.79797,116.05 L379.23233,115 L381.70706,115.35 L386.16162,116.75 L390.12122,122 L390.61615,123.05 L388.14142,127.95 L381.70706,135.3 L373.78787,137.75 L372.79797,137.75 L370.32324,137.4 L368.34344,136.35 L366.36365,131.8 L365.86868,126.55 L366.36365,122 L370.32324,118.15 L374.77777,116.4 L377.25253,115.7 L382.69696,116.05 L384.18182,116.4 L387.64645,120.95 L388.63635,123.4 L387.64645,128.3 L381.70706,134.25 L380.71716,134.95 L375.27274,136.35 L371.31314,137.05 L370.32324,137.05 L367.84848,134.95 L366.36365,124.8 L368.83838,120.6 L374.28284,117.8 L376.26263,117.1 L383.68686,117.45 L384.67676,118.15 L387.15152,123.05 L385.66666,129.35 L381.21213,134.6 L370.81818,137.05 L368.34344,134.6 L366.85858,124.45 L368.34344,122 L371.31314,119.9 L373.78787,118.5 L377.74747,117.8 L382.69696,117.45 L385.66666,123.05 L385.66666,123.4 L384.67676,129 L382.20203,132.85 L373.78787,136 L370.81818,135.65 L369.33334,132.5 L368.34344,130.05 L367.84848,128.3 L367.84848,127.25 L369.33334,122.7 L370.81818,120.6 L373.29294,118.85 L376.75757,118.5 L383.19193,119.2 L385.17172,122.7 L384.18182,127.25 L381.21213,132.15 L379.23233,133.2 L375.76767,134.25 L372.30304,134.25 L371.31314,133.55 L370.32324,132.5 L369.33334,128.3 L368.83838,125.5 L375.27274,118.85 L382.20203,119.2 L384.18182,120.95 L384.67676,124.1 L382.69696,128.65 L380.71716,132.15 L379.23233,132.85 L372.30304,135.3 L369.33334,125.85 L371.80807,122.7 L373.78787,121.65 L381.21213,119.2 L382.69696,120.6 L383.68686,122.7 L382.20203,129 L377.74747,133.55 L372.30304,132.85 L369.82828,127.25 L370.32324,126.2 L373.29294,122.35 L373.78787,122 L377.25253,120.6 L378.24243,120.25 L380.71716,120.95 L382.69696,122 L380.71716,130.05 L377.25253,133.2 L374.28284,131.8 L371.31314,129.35 L371.80807,124.8 L374.77777,122.35 L378.73737,120.95 L380.71716,122 L381.70706,123.05 L380.22223,130.05 L379.72726,130.4 L375.76767,132.15 L374.77777,131.1 L373.29294,129.35 L371.80807,127.25 L373.29294,123.75 L373.78787,123.4 L376.75757,122 L379.72726,122 L381.21213,122.7 L380.22223,125.85 L379.72726,127.25 L377.25253,129.7 L375.27274,131.45 L372.79797,128.65 L372.79797,127.25 L377.74747,122.7 L379.23233,123.4 L379.23233,125.5 L379.23233,125.85 L376.75757,129.7 L376.26263,130.4 L375.76767,130.75 L375.27274,130.75 L373.29294,127.6 L374.77777,125.85 L377.74747,123.05 L378.73737,125.85 L376.26263,129 L375.76767,128.3 L374.77777,126.55 L377.25253,124.45 L377.74747,124.8 L377.74747,125.85 L377.25253,126.55 M45.636364,195.15 L51.080807,196.2 L54.545456,198.3 L56.030304,200.05 L57.020203,202.85 L58.0101,208.8 L64.93939,262.7 L65.43434,270.75 L63.454544,272.85 L32.767677,287.9 L26.333334,289.3 L23.363636,288.95 L20.39394,285.45 L18.41414,280.55 L16.929293,276.35 L10,210.2 L10,208.8 L42.666668,195.5 L52.070705,198.3 L54.545456,203.55 L58.0101,211.6 L63.949493,263.4 L64.44444,269.7 L62.959595,272.5 L32.767677,284.4 L23.858585,284.4 L21.383839,283.35 L17.424242,276 L11.979798,221.75 L11.979798,213.35 L12.474748,211.6 L14.949495,207.4 L37.71717,197.95 L46.626263,197.25 L50.090908,200.4 L53.060608,204.25 L57.020203,214.4 L61.969696,264.45 L61.969696,270.05 L38.70707,281.95 L36.727272,282.65 L35.737373,283 L25.343435,283.7 L21.383839,280.9 L17.424242,275.3 L12.474748,220.7 L12.474748,219.3 L12.474748,212.3 L36.727272,198.65 L43.656567,197.6 L44.646465,197.95 L47.121212,200.05 L57.020203,215.1 L60.979797,263.05 L60.979797,270.4 L35.242424,283 L29.30303,283.35 L22.373737,279.85 L19.404041,273.9 L18.41414,270.05 L17.919191,266.2 L13.959596,218.6 L14.454545,213 L16.434343,210.9 L36.232323,199.7 L39.696968,200.4 L52.565655,208.45 L53.555557,210.55 L54.545456,213.7 L59,260.6 L56.030304,272.5 L35.737373,280.9 L24.353535,280.2 L22.373737,279.15 L18.41414,268.65 L15.444445,223.5 L15.444445,218.6 L16.434343,214.4 L17.919191,211.6 L35.737373,200.4 L37.71717,200.4 L41.18182,202.5 L49.10101,207.4 L52.070705,213.35 L58.0101,262.35 L54.050507,272.15 L52.565655,273.9 L43.656567,277.4 L26.828283,279.85 L21.878788,276.35 L18.90909,269.35 L18.41414,262 L15.939394,219.65 L17.424242,214.05 L31.282827,204.25 L39.20202,203.9 L39.696968,203.9 L43.656567,205.3 L49.59596,208.45 L52.070705,214.05 L57.515152,263.05 L55.040405,268.3 L53.060608,271.1 L47.121212,274.95 L37.22222,276.7 L35.242424,277.05 L21.878788,274.25 L19.404041,270.4 L18.41414,260.95 L17.424242,221.05 L17.424242,215.1 L20.39394,211.95 L26.828283,207.4 L31.777779,204.25 L33.757576,204.25 L46.626263,209.15 L51.080807,212.65 L52.070705,217.55 L56.525253,261.65 L56.525253,262.35 L54.050507,268.3 L48.11111,273.55 L36.727272,276.35 L25.838385,274.6 L24.353535,274.25 L20.39394,270.4 L19.89899,269.7 L18.90909,264.45 L17.424242,219.65 L17.919191,214.75 L32.272728,206.35 L35.737373,205.3 L45.141415,208.8 L49.59596,217.55 L55.535355,256.75 L56.030304,263.05 L54.545456,265.15 L52.070705,268.3 L47.61616,273.2 L37.71717,274.6 L30.787878,274.6 L30.292929,274.6 L20.88889,270.05 L19.404041,265.15 L18.90909,262.7 L17.919191,224.2 L17.919191,216.5 L33.757576,206 L34.747475,206 L40.68687,207.75 L47.61616,214.75 L54.050507,257.8 L53.555557,265.85 L50.090908,270.4 L48.60606,271.45 L44.646465,272.5 L33.757576,274.25 L28.313131,272.85 L20.88889,266.2 L19.404041,260.95 L18.41414,219.65 L25.838385,211.95 L27.323233,210.55 L31.777779,207.75 L40.68687,210.2 L44.646465,211.95 L45.636364,216.15 L52.565655,257.8 L53.060608,263.75 L51.080807,267.25 L47.61616,270.75 L34.747475,273.55 L24.848484,269.7 L19.404041,257.45 L19.89899,220 L25.838385,212.65 L28.80808,210.55 L34.252525,208.8 L40.191917,210.2 L42.17172,213 L51.080807,254.65 L51.575756,257.45 L52.565655,263.4 L48.11111,269.35 L42.17172,271.8 L33.757576,272.85 L31.777779,271.8 L22.373737,260.95 L20.39394,256.4 L20.39394,220.35 L23.363636,216.5 L30.787878,210.55 L37.71717,209.85 L42.17172,214.05 L43.161617,217.9 L50.585857,258.5 L51.080807,264.1 L47.121212,269.7 L43.656567,270.75 L38.70707,272.15 L30.292929,269.35 L20.88889,257.1 L22.373737,228.75 L22.868687,219.65 L23.858585,217.2 L27.818182,213.7 L33.262627,210.9 L41.67677,216.5 L50.090908,259.9 L49.59596,264.45 L46.626263,269 L38.70707,271.8 L26.333334,263.4 L22.868687,259.2 L23.363636,221.4 L25.838385,218.6 L30.787878,213.35 L31.282827,213.35 L37.22222,216.15 L40.191917,220.7 L49.59596,262 L47.121212,265.15 L42.17172,270.05 L37.22222,269 L28.80808,263.05 L26.333334,258.15 L23.858585,252.2 L23.363636,222.8 L30.292929,214.75 L37.22222,217.2 L46.626263,255 L48.60606,263.05 L41.18182,269 L38.21212,267.95 L30.787878,264.1 L27.818182,259.9 L23.858585,249.75 L23.858585,246.6 L23.858585,228.05 L24.353535,221.75 L27.818182,218.95 L31.282827,216.5 L37.22222,218.95 L47.121212,258.15 L44.646465,262 L41.67677,266.55 L30.292929,262.35 L25.343435,253.25 L23.858585,229.8 L26.828283,221.75 L27.818182,219.65 L28.80808,218.6 L38.21212,224.55 L45.141415,253.25 L44.151516,261.65 L38.21212,264.45 L31.777779,262.7 L30.292929,261.65 L29.30303,260.25 L27.818182,257.1 L25.343435,249.05 L25.838385,225.95 L28.313131,221.05 L30.292929,220.35 L31.282827,221.05 L42.666668,251.5 L44.151516,257.1 L43.656567,258.85 L30.787878,260.95 L28.313131,255.35 L26.333334,244.85 L26.333334,229.1 L28.80808,223.15 L31.777779,224.9 L43.161617,254.3 L43.161617,255.35 L35.242424,257.45 L29.30303,256.4 L28.80808,252.55 L28.313131,245.9 L27.818182,227.35 L32.272728,228.4 L42.17172,251.85 L40.68687,255.7 L38.21212,256.05 L33.757576,255.35 L32.767677,254.3 L29.30303,248 L30.787878,241.35 L40.68687,249.4 L35.242424,254.65 L32.767677,252.9 L32.272728,251.85 L32.272728,246.6 L37.71717,247.65 L38.21212,251.15 L33.757576,253.25 L32.767677,252.55 L33.262627,251.15 L37.71717,249.05 M90.181816,48.5 L95.13131,49.9 L99.58586,53.75 L103.05051,57.6 L114.92929,73.35 L119.383835,80.7 L119.878784,82.8 L116.41414,87.7 L112.94949,91.2 L108,92.25 L102.55556,93.3 L98.10101,92.25 L92.16161,88.4 L90.676765,87 L86.71717,81.75 L85.23232,77.55 L84.242424,70.9 L83.252525,59 L84.73737,53.05 L88.20202,50.25 L97.111115,51.65 L101.56566,56.2 L109.48485,66.35 L118.888885,82.45 L118.888885,83.15 L116.41414,86.65 L113.44444,89.1 L106.0202,92.25 L104.040405,92.95 L101.07071,92.95 L93.15151,88.75 L89.68687,85.25 L88.69697,84.2 L86.71717,79.65 L85.23232,76.15 L84.73737,74.05 L84.242424,62.5 L84.73737,57.25 L85.72727,54.1 L87.70707,50.95 L95.62626,51.65 L97.606064,52.7 L100.08081,54.8 L101.07071,55.85 L102.55556,57.6 L107.50505,64.6 L109.48485,67.4 L118.393936,82.8 L114.92929,85.25 L106.51515,90.5 L103.05051,92.6 L101.07071,92.25 L94.63636,88.4 L90.676765,85.95 L89.68687,84.55 L86.71717,78.6 L85.72727,74.75 L84.73737,64.25 L85.72727,55.5 L86.71717,53.4 L87.70707,53.05 L95.13131,52 L99.09091,54.8 L102.55556,58.65 L108.49495,66.35 L116.90909,81.05 L117.40404,83.5 L105.52525,91.9 L99.58586,90.15 L98.10101,89.45 L96.616165,88.75 L91.666664,86.3 L91.171715,85.6 L88.20202,80 L85.72727,72.3 L85.72727,61.45 L85.72727,60.05 L86.22222,56.9 L87.21212,52.35 L95.13131,53.05 L105.030304,62.5 L111.959595,72.65 L115.42424,80.35 L114.43434,83.85 L113.44444,86.3 L111.464645,87.35 L107.0101,89.45 L102.55556,90.15 L98.59596,89.45 L90.676765,83.15 L87.70707,77.2 L86.71717,74.05 L86.22222,65.3 L86.22222,63.9 L86.22222,57.25 L88.20202,53.75 L89.19192,53.05 L93.15151,53.4 L100.08081,58.65 L102.55556,60.75 L109.9798,71.25 L113.93939,77.2 L113.93939,80.35 L112.94949,83.85 L110.969696,86.3 L108.49495,87.7 L99.58586,89.45 L92.16161,82.45 L87.70707,76.15 L86.71717,71.6 L87.21212,59.35 L88.69697,55.5 L89.68687,53.4 L96.616165,56.55 L105.52525,66 L107.50505,68.1 L113.44444,76.15 L113.93939,78.25 L110.47475,86.3 L108.49495,87.35 L101.07071,89.1 L94.14141,84.2 L90.676765,79.65 L89.68687,78.25 L87.21212,67.05 L87.21212,64.25 L88.69697,59.35 L89.68687,56.2 L90.676765,54.8 L93.15151,55.85 L99.58586,59.7 L107.50505,68.8 L109.48485,71.25 L112.454544,75.1 L112.454544,75.8 L110.969696,82.8 L109.48485,86.65 L100.57576,87.7 L95.62626,85.25 L94.63636,84.55 L90.676765,77.9 L89.68687,74.75 L88.69697,71.25 L87.70707,67.4 L87.70707,66.7 L88.20202,64.6 L91.171715,56.2 L93.64646,56.55 L94.63636,57.25 L99.09091,60.75 L104.040405,65.65 L109.9798,73 L111.464645,77.9 L111.464645,79.65 L108.9899,84.9 L106.0202,86.65 L104.040405,87 L101.07071,87.35 L95.62626,84.55 L94.63636,83.85 L92.16161,78.95 L90.181816,74.05 L89.68687,71.6 L88.69697,63.9 L93.15151,56.55 L98.59596,60.05 L106.0202,68.1 L107.0101,69.5 L108.49495,71.95 L110.969696,76.85 L110.969696,77.9 L110.47475,79.3 L108.49495,83.85 L108,84.55 L107.0101,85.95 L100.57576,85.95 L96.121216,84.55 L91.666664,77.55 L89.19192,66.35 L89.68687,62.85 L92.16161,58.3 L96.616165,60.4 L100.57576,62.5 L108,70.9 L109.48485,77.55 L108.9899,80.35 L107.50505,84.2 L106.0202,85.6 L102.55556,85.95 L96.616165,83.85 L94.63636,82.1 L91.666664,77.2 L90.181816,67.4 L90.181816,64.6 L91.171715,61.1 L92.16161,60.4 L97.606064,61.1 L99.58586,62.15 L105.52525,68.1 L107.0101,70.9 L108.49495,74.05 L108.49495,75.45 L107.0101,81.05 L106.0202,83.15 L103.545456,83.85 L99.58586,83.85 L95.13131,81.4 L92.16161,75.1 L91.171715,71.95 L91.171715,68.8 L91.171715,67.75 L91.171715,67.4 L92.16161,61.8 L96.616165,61.8 L104.040405,66.7 L108,73.35 L108,76.5 L102.55556,83.85 L101.07071,83.5 L96.616165,82.1 L96.121216,81.75 L95.13131,80.35 L92.65656,74.75 L91.666664,68.45 L93.15151,62.5 L93.64646,62.15 L96.121216,61.8 L99.09091,63.55 L102.06061,65.65 L106.51515,72.3 L107.0101,75.45 L105.030304,79.3 L104.535355,80 L102.55556,82.45 L100.08081,83.15 L97.606064,82.1 L96.121216,80.35 L94.14141,77.55 L92.16161,68.45 L95.62626,63.9 L97.111115,62.5 L102.06061,66.35 L105.030304,73 L105.030304,73.35 L105.030304,75.1 L103.545456,81.05 L103.05051,81.4 L100.08081,82.45 L97.111115,81.05 L96.121216,80 L95.13131,78.6 L93.64646,75.1 L92.65656,69.85 L99.09091,64.95 L100.57576,65.65 L102.55556,67.75 L103.545456,73.35 L104.040405,78.95 L102.55556,81.05 L102.06061,81.4 L97.606064,80.35 L94.63636,75.8 L93.15151,70.9 L93.64646,69.15 L98.59596,66 L102.55556,68.45 L103.545456,74.05 L101.07071,78.25 L96.616165,76.85 L94.14141,71.95 L94.14141,70.2 L95.62626,68.45 L97.111115,67.4 L98.59596,66.35 L101.56566,69.15 L102.06061,69.85 L102.06061,74.4 L101.56566,76.85 L99.09091,77.2 L98.59596,77.2 L98.10101,76.85 L97.111115,75.1 L95.13131,69.85 L96.121216,68.1 L98.59596,68.45 L101.56566,70.55 L100.57576,73.35 L99.58586,75.45 L98.59596,76.15 L97.111115,73.7 L96.616165,72.65 L96.121216,71.25 L96.121216,70.55 L96.616165,70.2 L101.07071,70.55 L100.08081,73.7 L99.09091,75.45 L97.606064,73.35 L98.59596,71.6 L100.08081,71.95 M29.79798,95.05 L37.22222,96.1 L40.191917,99.25 L43.656567,106.6 L51.080807,125.15 L52.070705,127.95 L45.636364,133.55 L34.252525,139.15 L26.333334,140.55 L24.848484,140.2 L19.404041,138.8 L16.434343,136.7 L10,131.8 L10,115 L10.494949,112.2 L10.989899,109.75 L12.969697,104.85 L22.868687,96.8 L24.353535,96.1 L34.747475,96.1 L38.70707,98.2 L41.67677,103.1 L50.090908,123.4 L49.10101,129 L46.131313,132.15 L39.20202,136.35 L31.282827,139.15 L27.323233,140.2 L24.353535,139.85 L19.89899,138.1 L10.494949,130.4 L10.494949,118.85 L11.979798,108.35 L13.959596,104.15 L22.373737,99.95 L27.818182,98.55 L29.30303,98.2 L30.292929,98.2 L38.70707,98.55 L43.656567,108 L48.60606,119.9 L48.60606,126.9 L46.626263,130.75 L35.737373,137.4 L28.313131,140.2 L24.353535,139.5 L16.434343,134.6 L12.969697,131.8 L10.494949,128.3 L11.979798,110.8 L15.939394,104.5 L24.353535,99.6 L29.79798,98.2 L36.727272,98.55 L42.666668,108.35 L46.131313,114.3 L47.61616,124.8 L45.636364,130.4 L43.656567,132.15 L41.67677,133.55 L28.80808,139.15 L27.818182,139.15 L21.878788,137.75 L16.434343,134.25 L12.969697,131.45 L10.989899,128.65 L11.484848,117.45 L11.979798,113.25 L15.939394,104.85 L27.818182,99.25 L34.252525,98.55 L38.21212,101.35 L42.17172,108.35 L45.636364,118.85 L46.626263,123.75 L44.151516,130.75 L41.67677,132.5 L34.252525,136.35 L31.282827,137.05 L25.838385,137.75 L18.90909,135.3 L15.939394,133.2 L14.454545,131.8 L12.969697,128.65 L11.484848,122 L11.484848,117.8 L11.979798,115.7 L14.454545,108.7 L17.424242,105.2 L18.41414,104.5 L26.828283,101 L31.777779,99.6 L34.252525,99.95 L38.21212,102.75 L41.67677,107.65 L43.656567,112.9 L45.141415,118.85 L45.636364,121.3 L45.636364,125.5 L44.151516,129 L40.68687,132.15 L40.191917,132.5 L35.737373,135.3 L29.30303,136.7 L16.434343,133.2 L14.454545,130.4 L13.464646,126.2 L11.979798,116.05 L13.959596,110.45 L17.424242,105.9 L25.343435,101.7 L33.757576,101 L34.747475,101.35 L35.242424,101.7 L39.696968,105.55 L40.68687,107.3 L43.656567,113.25 L46.131313,123.75 L41.67677,129.7 L35.737373,134.25 L29.30303,135.3 L26.828283,135.65 L25.343435,135.3 L19.89899,132.85 L15.939394,130.4 L15.444445,130.05 L12.969697,122 L12.474748,115 L16.929293,106.6 L23.858585,103.8 L25.838385,103.1 L32.767677,101.35 L35.737373,102.4 L38.21212,105.9 L42.666668,112.55 L43.656567,117.8 L44.646465,125.5 L35.737373,133.55 L25.343435,134.95 L21.878788,133.55 L15.444445,128.65 L14.454545,124.8 L12.969697,118.85 L13.464646,116.05 L13.959596,113.25 L14.454545,112.55 L15.939394,110.8 L20.39394,106.95 L23.858585,104.15 L32.767677,102.05 L36.232323,105.55 L38.21212,107.65 L40.191917,110.45 L42.666668,114.3 L43.656567,120.95 L43.161617,123.4 L41.67677,127.95 L35.242424,132.85 L25.343435,133.9 L22.868687,133.55 L16.434343,129 L14.454545,118.15 L14.454545,116.4 L16.929293,110.1 L25.838385,103.8 L36.727272,106.6 L38.70707,109.05 L42.666668,117.1 L43.161617,118.85 L42.666668,121.3 L41.67677,125.5 L39.696968,129 L34.747475,132.5 L23.363636,133.55 L17.919191,126.55 L14.949495,120.6 L14.949495,118.85 L16.434343,111.85 L25.838385,104.15 L36.232323,106.95 L37.71717,109.05 L41.18182,114.65 L41.67677,116.75 L42.17172,121.3 L41.67677,124.45 L41.18182,125.5 L40.191917,127.25 L39.20202,128.65 L34.747475,132.15 L30.787878,132.15 L22.373737,132.15 L18.90909,127.25 L16.434343,116.05 L16.434343,115.7 L16.929293,113.6 L19.404041,110.8 L25.343435,105.2 L38.21212,110.1 L41.18182,116.4 L41.67677,121.3 L41.67677,124.1 L40.68687,126.2 L36.232323,130.75 L34.747475,131.1 L24.848484,131.8 L21.878788,131.1 L19.89899,127.6 L17.424242,116.4 L20.39394,110.1 L22.868687,108.7 L28.313131,109.05 L36.727272,110.45 L39.696968,113.95 L40.191917,114.65 L40.68687,122.7 L38.21212,127.95 L36.727272,130.05 L23.858585,128.3 L19.404041,125.15 L18.90909,123.05 L18.41414,114.65 L19.89899,112.55 L29.79798,109.4 L37.22222,111.15 L39.696968,114.65 L40.191917,116.05 L38.21212,127.6 L30.292929,128.3 L26.828283,128.3 L21.878788,126.2 L19.404041,124.45 L19.404041,114.65 L28.313131,110.1 L29.30303,109.75 L35.242424,111.5 L37.71717,113.6 L38.21212,124.45 L36.727272,126.9 L34.747475,127.6 L26.333334,127.6 L23.858585,125.15 L19.404041,117.45 L19.404041,116.05 L24.353535,112.55 L29.79798,110.1 L35.737373,112.55 L37.22222,116.05 L37.71717,119.9 L35.737373,124.8 L34.252525,125.85 L30.292929,126.9 L27.323233,127.6 L25.343435,126.55 L20.88889,119.2 L21.383839,116.75 L23.363636,114.3 L27.323233,111.85 L29.30303,111.5 L34.747475,112.55 L35.242424,116.75 L35.242424,124.45 L29.30303,126.2 L26.828283,125.85 L25.343435,125.5 L22.373737,116.4 L23.858585,115 L27.323233,112.9 L30.787878,112.55 L34.252525,114.3 L34.252525,123.75 L32.767677,124.45 L29.79798,125.85 L26.333334,125.15 L23.858585,118.5 L25.343435,115.35 L25.838385,114.65 L33.262627,113.95 L33.757576,120.25 L30.787878,123.75 L29.79798,124.8 L26.333334,124.45 L25.838385,119.9 L25.838385,117.45 L25.838385,115.7 L26.333334,114.65 L30.787878,114.65 L32.272728,120.6 L32.272728,121.3 L29.79798,123.4 L26.333334,121.3 L26.828283,115 L29.30303,115 L31.282827,117.1 L30.787878,119.55 L27.323233,121.65 L27.323233,118.5 L30.292929,116.75 L30.292929,122 L28.313131,118.5 L29.79798,118.5 M47.121212,194.45 L57.515152,209.5 L49.59596,218.95 L37.71717,225.25 L22.868687,224.2 L10,213.35 L41.67677,195.15 L57.020203,209.5 L50.090908,216.5 L37.71717,222.8 L27.818182,219.3 L19.404041,214.4 L35.737373,199 L42.666668,197.25 L46.626263,208.1 L35.737373,217.2 L29.30303,212.3 L31.282827,206.7 L36.727272,199.7 L37.22222,209.15 M221.34343,185 L218.37373,185 L225.30302,193.4 L211.93939,220 L209.9596,222.8 L206.9899,226.65 L204.51515,229.1 L195.60606,231.55 L188.18182,231.55 L175.31313,231.2 L93.15151,227.35 L92.65656,220.7 L93.15151,218.25 L112.454544,203.55 L206.9899,188.85 L211.93939,189.2 L221.34343,190.95 L221.83838,192.35 L221.34343,196.9 L218.37373,207.05 L206.9899,226.3 L195.60606,230.85 L121.36364,228.05 L103.05051,226.65 L93.64646,224.9 L98.10101,215.8 L109.9798,206.7 L206.49495,189.9 L207.9798,190.95 L217.87878,199.7 L212.92929,215.8 L211.93939,217.9 L206.49495,225.6 L204.0202,227 L189.17172,230.5 L101.07071,225.6 L99.09091,224.55 L97.111115,221.75 L96.616165,219.65 L113.44444,206.7 L162.93939,199.7 L204.0202,194.45 L210.45454,193.75 L212.92929,195.85 L214.90909,200.05 L211.44444,214.75 L208.9697,221.4 L206.49495,223.5 L189.66667,230.15 L114.92929,225.95 L106.0202,224.2 L101.56566,222.45 L99.58586,219.65 L111.959595,208.1 L112.94949,207.75 L117.40404,207.05 L205.50505,195.85 L207.48485,195.85 L210.45454,202.5 L205.50505,218.25 L204.0202,220.7 L193.13132,227 L169.37373,227.7 L122.84849,226.3 L109.48485,224.55 L102.06061,222.45 L106.0202,214.75 L108.9899,211.25 L112.454544,208.45 L118.888885,207.4 L158.48485,202.5 L201.54546,199.7 L204.51515,203.2 L206.49495,208.1 L202.53535,218.95 L195.60606,225.25 L193.62627,226.3 L189.17172,227 L152.0505,226.65 L110.47475,224.55 L106.51515,222.1 L105.030304,220 L105.030304,216.85 L108.9899,211.6 L118.393936,209.85 L164.91919,202.15 L201.0505,200.05 L204.0202,206.7 L200.55556,216.85 L189.17172,225.95 L115.42424,224.55 L110.969696,223.85 L106.51515,221.75 L108,216.85 L112.454544,211.6 L163.43434,203.2 L167.39394,202.85 L201.0505,202.15 L200.06061,213.7 L189.17172,222.8 L163.43434,224.55 L118.393936,224.2 L110.969696,222.8 L108,219.3 L108.9899,217.9 L113.44444,211.95 L119.383835,210.9 L196.59596,202.5 L196.10101,216.15 L190.16162,220.7 L182.24243,223.15 L134.23233,223.85 L117.40404,223.5 L110.47475,221.75 L109.9798,218.95 L114.43434,213 L125.818184,210.9 L159.47475,208.8 L196.10101,210.2 L194.12122,216.85 L178.77777,222.8 L119.878784,223.5 L113.44444,222.1 L112.94949,220.35 L116.90909,213 L157.49495,209.15 L191.15152,210.55 L192.63637,214.4 L183.72728,219.3 L164.42424,221.75 L156.0101,222.8 L149.08081,222.8 L122.84849,222.8 L119.878784,222.45 L117.40404,221.75 L115.42424,217.9 L117.89899,214.05 L123.34344,213.35 L174.32323,210.55 L187.19193,216.5 L185.70708,217.9 L156.0101,221.05 L124.333336,222.45 L118.888885,221.4 L118.393936,218.25 L129.28282,214.05 L170.36363,212.3 L171.35353,214.05 L170.85858,217.2 L170.36363,218.95 L121.36364,221.05 L118.888885,220.7 L121.85859,217.55 L122.35354,217.2 L130.27272,216.15 L160.46465,213.35 L166.89899,213.7 L168.87878,218.95 L129.77777,220.35 L126.31313,218.6 L152.54546,216.5 L162.93939,217.2 L148.58586,217.9 L155.0202,217.2 L152.54546,217.55 M114.92929,147.9 L117.40404,149.3 L118.393936,150 L123.83839,155.25 L125.818184,161.2 L126.31313,164.7 L124.333336,170.65 L121.36364,173.8 L112.454544,175.55 L104.535355,171.7 L102.55556,169.25 L99.58586,162.6 L99.58586,161.9 L100.57576,157.7 L104.535355,152.45 L108,150 L115.91919,148.6 L117.40404,149.65 L123.34344,154.9 L124.828285,158.75 L125.818184,166.1 L125.323235,167.15 L119.878784,173.45 L112.94949,174.85 L110.47475,174.5 L103.545456,170.3 L99.58586,162.25 L101.56566,157 L106.51515,151.05 L112.454544,149.65 L114.92929,149.65 L119.383835,152.1 L122.84849,154.9 L124.828285,161.9 L123.34344,167.85 L120.86869,172.05 L117.40404,173.45 L115.91919,173.45 L109.9798,173.1 L108.49495,172.75 L103.545456,169.95 L100.57576,164 L100.57576,162.6 L102.55556,155.95 L106.0202,152.45 L109.48485,150.35 L114.43434,150 L117.89899,152.1 L124.333336,160.85 L122.84849,168.55 L119.878784,172.4 L113.44444,173.1 L106.51515,171 L101.07071,164.35 L102.55556,157.35 L104.535355,154.2 L105.52525,153.15 L110.47475,150.35 L115.42424,151.05 L118.393936,153.15 L123.34344,159.8 L123.34344,162.6 L122.84849,167.5 L122.35354,168.9 L119.878784,172.05 L114.92929,172.05 L108.9899,170.65 L106.0202,167.85 L103.545456,164.35 L102.55556,159.45 L105.52525,153.5 L106.0202,153.15 L108,152.45 L109.48485,152.45 L117.89899,152.8 L121.85859,159.45 L122.84849,161.2 L122.84849,165.75 L120.86869,169.95 L119.878784,171.35 L117.40404,171.35 L111.959595,170.65 L105.030304,166.45 L104.535355,165.05 L104.040405,161.55 L104.040405,156.65 L104.535355,155.95 L105.52525,154.9 L107.50505,153.15 L114.43434,152.8 L116.90909,153.15 L120.37374,157 L121.36364,158.75 L121.36364,166.8 L119.878784,168.9 L112.94949,170.65 L109.48485,168.2 L106.51515,164.7 L105.52525,161.9 L106.0202,154.9 L106.51515,154.2 L115.42424,155.25 L117.40404,155.6 L118.393936,156.3 L120.86869,158.4 L120.37374,165.4 L117.89899,168.2 L114.92929,169.95 L113.93939,170.3 L112.94949,170.3 L111.464645,169.25 L109.9798,167.85 L108.9899,166.45 L107.0101,161.9 L106.51515,160.5 L106.0202,157.35 L110.47475,155.25 L114.92929,155.25 L118.393936,156.65 L120.37374,158.4 L120.37374,159.45 L119.383835,165.75 L114.43434,169.6 L111.959595,169.6 L108,162.95 L107.0101,159.45 L107.0101,157.7 L107.0101,157 L108.49495,156.3 L111.959595,155.6 L115.91919,156.65 L119.878784,159.8 L118.888885,162.6 L116.90909,166.8 L114.92929,168.2 L113.44444,168.55 L110.969696,167.85 L108.9899,161.2 L108,157.7 L108,157 L109.48485,156.3 L115.91919,157.35 L117.89899,159.45 L118.393936,160.5 L118.393936,162.25 L115.42424,167.85 L112.454544,168.2 L110.969696,164.7 L108.49495,157.7 L113.93939,157.35 L115.42424,158.05 L117.89899,161.9 L115.42424,164.35 L114.92929,164.7 L111.959595,165.75 L110.969696,161.2 L110.969696,159.8 L110.969696,159.1 L111.464645,158.75 L114.43434,157.7 L116.90909,161.2 L116.90909,161.9 L115.91919,163.65 L112.454544,164.7 L112.94949,163.65 L113.93939,161.9 L116.41414,162.6 M236.19193,17.35 L256.9798,19.1 L257.47476,26.1 L239.16162,57.6 L223.81818,56.55 L220.84848,32.4 L225.79797,24.35 L231.24243,23.3 L255.9899,19.1 L255,24 L239.16162,55.85 L223.81818,56.2 L222.33333,31.7 L223.32323,29.95 L236.19193,23.3 L246.09091,23.3 L247.08081,35.2 L243.12122,44.65 L230.25252,53.4 L227.28282,40.1 L230.25252,31.35 L235.20203,26.1 L237.18182,25.05 L242.13132,25.4 L246.09091,36.6 L244.11111,41.85 L232.72728,42.9 L232.23233,41.5 L230.74748,35.2 L235.20203,29.6 L243.61617,29.6 L236.19193,40.45 L237.67677,32.75 M396.55554,22.25 L397.0505,22.25 L399.0303,23.65 L404.9697,28.2 L405.46466,29.95 L405.46466,38.7 L405.46466,42.55 L405.46466,46.05 L403.9798,47.45 L354.48486,67.75 L353.49496,67.75 L350.52524,67.05 L347.55554,65.65 L348.0505,64.25 L351.51514,56.55 L355.47476,53.05 L393.58585,23.3 L397.0505,24 L403.48486,27.5 L405.46466,31 L404.9697,43.95 L403.48486,47.45 L402.49496,48.85 L354.9798,66.35 L354.48486,66.35 L349.0404,62.5 L350.0303,60.4 L351.51514,58.65 L362.40405,48.85 L393.0909,24 L400.0202,26.8 L402.9899,28.2 L404.47476,29.95 L404.9697,36.6 L403.9798,41.15 L400.51514,48.85 L357.9495,64.6 L350.52524,63.2 L350.52524,62.85 L351.51514,59.7 L353,57.95 L356.9596,53.75 L387.15152,28.9 L391.1111,25.75 L393.0909,25.4 L396.0606,25.4 L401.0101,28.2 L403.48486,30.65 L404.47476,32.05 L404.47476,38.7 L399.0303,48.85 L359.43436,63.9 L358.44446,63.9 L351.0202,63.2 L351.51514,60.4 L353,58.3 L355.47476,55.85 L363.39395,49.2 L388.14142,28.55 L389.62625,27.5 L395.56564,26.1 L397.0505,26.45 L401.0101,28.55 L404.47476,34.15 L403.48486,40.1 L399.52524,47.45 L394.0808,50.25 L358.9394,63.55 L355.9697,63.55 L351.51514,61.8 L356.9596,55.5 L362.899,49.9 L385.66666,30.65 L389.62625,28.2 L391.60605,27.5 L393.58585,27.15 L397.0505,27.15 L398.0404,27.85 L402.49496,31.35 L402.9899,32.4 L403.48486,37.65 L403.48486,38.7 L400.0202,46.05 L398.0404,48.15 L391.60605,50.95 L355.9697,63.2 L355.47476,63.2 L353.49496,59.7 L358.44446,54.1 L384.67676,31.7 L388.63635,29.95 L395.0707,28.2 L397.0505,28.2 L398.0404,28.2 L402.49496,31 L401.0101,43.25 L399.52524,45.35 L396.0606,47.8 L394.0808,48.85 L357.9495,62.5 L353.9899,60.4 L358.44446,54.45 L364.38385,49.2 L382.20203,34.5 L383.19193,33.8 L392.59595,28.9 L394.0808,28.55 L398.53534,29.6 L399.52524,29.95 L402,32.75 L400.51514,41.85 L400.0202,43.6 L399.0303,44.65 L396.0606,47.45 L395.56564,47.8 L358.44446,61.45 L356.9596,59.7 L356.9596,57.25 L359.9293,53.4 L385.17172,32.4 L390.12122,30.3 L393.58585,29.25 L397.0505,29.6 L400.51514,30.3 L401.0101,36.6 L401.0101,36.95 L400.0202,40.8 L398.0404,45.35 L394.57574,47.45 L388.63635,50.25 L361.9091,59.35 L356.9596,59 L361.9091,52.35 L364.87878,49.55 L379.72726,37.3 L384.67676,33.45 L388.63635,31 L391.60605,29.95 L398.0404,30.3 L400.51514,34.5 L400.51514,35.9 L398.53534,42.55 L396.0606,46.05 L393.0909,48.15 L360.9192,57.6 L358.44446,57.95 L358.44446,57.6 L358.44446,57.25 L361.9091,52.7 L364.87878,49.9 L366.85858,48.15 L378.24243,38.7 L386.16162,32.75 L391.60605,30.3 L397.54544,30.3 L399.0303,38.35 L399.0303,38.7 L397.54544,43.25 L395.56564,45.7 L394.0808,47.1 L392.59595,47.8 L388.14142,49.55 L359.43436,57.6 L360.42426,55.15 L363.8889,51.65 L368.83838,47.1 L379.23233,38 L386.16162,33.45 L390.61615,31.7 L395.0707,30.65 L397.0505,32.4 L398.0404,40.8 L394.57574,44.65 L393.0909,46.05 L391.1111,47.45 L387.15152,49.55 L385.17172,50.25 L361.41415,56.55 L364.38385,51.3 L380.22223,38 L381.21213,37.3 L387.15152,33.1 L391.1111,32.05 L397.0505,33.1 L397.0505,40.8 L397.0505,41.5 L395.0707,43.6 L392.101,45.7 L385.66666,49.9 L361.9091,55.85 L363.8889,53.05 L373.78787,43.6 L380.71716,38 L385.17172,35.2 L389.13132,33.1 L392.101,33.45 L396.0606,34.85 L396.55554,35.55 L397.0505,39.4 L393.58585,43.6 L391.1111,46.05 L364.87878,54.45 L363.39395,54.45 L367.35355,49.9 L373.29294,44.3 L377.74747,40.8 L384.18182,35.9 L387.64645,34.15 L391.60605,34.15 L393.58585,34.15 L395.0707,34.85 L396.0606,39.05 L394.57574,42.2 L390.61615,46.05 L385.17172,47.8 L368.34344,50.25 L371.80807,45.7 L380.71716,39.05 L387.15152,35.9 L389.62625,34.85 L392.101,34.85 L395.0707,37.3 L395.0707,38.35 L392.59595,42.9 L391.1111,45 L383.68686,47.8 L382.69696,48.15 L372.79797,47.8 L372.79797,46.75 L373.78787,45.7 L378.24243,41.5 L385.17172,36.95 L388.63635,35.55 L391.60605,34.85 L393.0909,36.95 L392.59595,41.15 L390.12122,44.3 L388.63635,45.35 L387.15152,46.05 L384.18182,46.75 L373.29294,47.8 L380.22223,40.45 L383.68686,38 L387.15152,36.6 L392.101,35.9 L392.59595,39.75 L391.60605,42.2 L388.14142,45.35 L387.15152,45.7 L378.73737,46.4 L376.75757,46.4 L377.25253,44.3 L377.74747,43.25 L378.24243,42.55 L379.23233,41.5 L383.68686,38.35 L386.65656,37.3 L391.1111,36.25 L391.60605,39.05 L390.12122,41.15 L387.64645,43.95 L382.20203,45.7 L381.21213,44.3 L382.69696,39.05 L384.67676,38.35 L390.61615,37.65 L390.61615,38 L390.61615,38.35 L389.13132,41.85 L386.65656,42.9 L383.19193,44.3 L384.18182,39.4 L385.66666,38.7 L389.13132,38.35 L386.16162,42.55 L383.68686,42.2 L383.68686,41.85 L384.18182,39.75 L386.65656,39.4 M261.9293,242.4 L260.9394,242.4 L274.30304,242.75 L297.56564,252.9 L302.51514,256.4 L295.0909,261.3 L264.899,265.85 L262.42426,265.15 L259.45456,263.4 L254.50505,254.65 L259.9495,248.35 L263.9091,245.9 L268.36365,244.15 L272.81818,242.75 L283.21213,247.3 L297.0707,253.6 L297.0707,255 L296.57574,256.75 L294.101,260.25 L283.21213,263.05 L275.78787,264.1 L265.8889,263.75 L260.44446,260.25 L259.45456,257.45 L259.45456,251.5 L260.9394,250.45 L272.32324,244.85 L275.29294,245.2 L294.59595,253.6 L296.0808,257.1 L294.59595,259.55 L279.74747,263.05 L271.33334,263.75 L268.36365,263.05 L266.38385,262.35 L257.47476,251.85 L276.77777,245.9 L282.22223,248.35 L290.14142,252.2 L295.58585,256.4 L295.0909,257.8 L293.1111,258.85 L289.15152,260.25 L272.32324,262.7 L266.87878,257.8 L259.9495,251.5 L276.77777,246.6 L283.21213,249.4 L293.60605,256.05 L294.101,257.8 L287.66666,260.25 L277.27274,260.95 L275.29294,260.95 L273.31314,260.25 L268.36365,257.8 L264.899,252.55 L267.37375,250.8 L271.33334,248.7 L280.24243,250.45 L288.65656,253.25 L290.14142,253.95 L286.67676,257.8 L272.81818,258.5 L269.84848,256.4 L267.37375,253.25 L267.86868,250.8 L270.34344,250.45 L274.30304,250.45 L275.78787,251.15 L284.69696,256.4 L284.20203,257.45 L275.29294,257.1 L268.85858,255 L272.81818,252.2 L278.26263,253.95 L274.30304,254.65 L271.82828,255 L269.84848,255 M25.838385,10 L25.343435,10 L40.68687,10.35 L44.151516,11.75 L66.42424,32.05 L66.91919,37.3 L65.92929,40.1 L51.080807,46.75 L47.121212,47.1 L44.151516,46.4 L38.70707,43.6 L31.282827,38.7 L29.79798,37.65 L23.858585,30.3 L23.363636,29.6 L22.868687,28.55 L20.88889,24 L19.89899,12.45 L20.88889,11.75 L23.858585,10.7 L26.333334,10.7 L41.67677,11.4 L44.646465,13.15 L59.9899,26.45 L66.42424,34.5 L66.42424,34.85 L63.949493,39.05 L60.979797,41.15 L57.020203,43.95 L51.575756,46.4 L49.10101,46.75 L42.666668,45 L37.71717,42.55 L31.777779,38 L24.848484,31.35 L23.858585,29.6 L20.88889,22.95 L20.88889,20.5 L21.878788,13.85 L22.868687,11.4 L26.828283,11.05 L27.818182,11.05 L41.18182,11.75 L43.656567,13.15 L46.131313,15.25 L55.535355,23.65 L62.464645,30.65 L63.454544,35.55 L62.959595,38.7 L59,42.2 L46.626263,45 L44.646465,45 L41.18182,43.6 L35.242424,40.45 L27.323233,33.45 L24.848484,30.3 L23.363636,26.8 L21.878788,22.6 L21.878788,19.8 L22.373737,18.05 L24.848484,11.4 L25.343435,11.4 L37.22222,11.75 L45.141415,14.55 L49.10101,18.05 L58.0101,26.45 L59,27.5 L60.979797,29.6 L61.969696,31 L62.464645,38.35 L58.50505,41.5 L52.565655,43.6 L46.131313,44.65 L45.141415,44.65 L44.646465,44.65 L43.656567,44.3 L32.767677,37.3 L28.313131,32.75 L26.333334,30.3 L22.373737,24 L23.363636,15.95 L24.848484,14.9 L26.333334,14.2 L33.757576,12.8 L34.252525,12.8 L38.70707,13.5 L44.151516,14.9 L47.61616,17.35 L60.484848,29.6 L60.979797,30.3 L61.474747,35.9 L60.979797,37.65 L60.484848,38.35 L56.525253,41.5 L51.575756,43.25 L37.71717,42.2 L25.343435,28.2 L23.363636,25.4 L22.868687,24.35 L22.868687,21.2 L23.363636,17.7 L23.858585,17.35 L28.80808,14.55 L30.787878,13.85 L34.252525,13.15 L36.232323,13.5 L44.151516,15.6 L46.626263,17 L51.080807,20.85 L60.484848,30.3 L59.9899,37.3 L59.49495,38.35 L55.535355,41.15 L53.555557,42.2 L40.68687,41.85 L36.727272,39.75 L34.252525,37.65 L29.79798,32.75 L28.313131,31 L24.353535,21.55 L25.343435,20.15 L32.272728,14.2 L33.757576,14.2 L43.656567,15.6 L51.575756,21.55 L59,29.25 L59.9899,32.75 L59.9899,36.95 L59,38.7 L53.555557,42.55 L41.67677,41.85 L32.272728,34.5 L28.80808,30.3 L27.323233,25.75 L26.828283,19.8 L27.323233,19.45 L35.737373,14.55 L45.636364,18.4 L56.030304,26.45 L57.020203,27.5 L58.50505,29.6 L58.0101,37.65 L57.515152,39.75 L46.626263,41.85 L43.161617,41.5 L41.67677,41.15 L30.292929,32.05 L28.80808,27.15 L27.323233,20.15 L34.747475,15.25 L42.666668,17.35 L47.61616,20.5 L49.59596,21.9 L54.050507,26.45 L57.515152,33.45 L56.525253,36.25 L56.030304,37.65 L55.040405,40.1 L48.11111,40.8 L42.666668,41.15 L42.17172,40.8 L39.20202,38.35 L33.262627,32.4 L31.282827,29.6 L29.79798,25.05 L28.313131,20.15 L30.787878,18.4 L38.21212,17 L41.18182,17 L43.656567,18.75 L48.60606,22.95 L55.535355,29.95 L57.020203,32.75 L56.030304,36.95 L54.545456,39.4 L48.11111,40.45 L45.636364,40.45 L38.70707,37.65 L35.737373,34.85 L31.282827,28.2 L29.30303,23.3 L30.292929,21.2 L31.282827,19.8 L33.757576,18.75 L41.18182,17.35 L51.080807,25.75 L56.525253,32.75 L53.060608,39.4 L51.575756,39.75 L45.636364,39.75 L40.68687,38 L35.737373,34.15 L31.777779,28.55 L30.292929,25.05 L32.767677,19.8 L36.232323,18.4 L41.18182,17.7 L52.070705,27.5 L52.565655,28.2 L54.050507,30.65 L54.545456,34.15 L54.545456,34.85 L53.555557,36.25 L49.10101,39.05 L45.636364,39.4 L41.18182,37.65 L38.21212,35.55 L30.787878,25.4 L31.282827,24.35 L32.272728,22.6 L33.757576,20.15 L38.70707,18.4 L41.18182,19.45 L41.67677,19.8 L48.60606,25.05 L53.555557,29.95 L54.050507,34.5 L53.060608,35.9 L50.090908,37.3 L45.141415,38.7 L42.666668,37.65 L38.21212,34.85 L31.777779,26.45 L31.777779,26.1 L32.272728,23.65 L34.747475,20.15 L37.71717,19.8 L40.68687,19.8 L44.151516,21.55 L49.59596,26.45 L53.555557,30.3 L53.555557,34.85 L51.080807,36.6 L48.11111,37.3 L45.636364,37.65 L42.17172,37.3 L38.21212,33.1 L36.727272,31.35 L32.767677,26.1 L32.272728,25.05 L32.767677,22.95 L37.22222,20.15 L41.18182,20.5 L42.666668,21.2 L45.636364,24 L51.080807,29.6 L50.585857,36.25 L46.131313,37.3 L44.151516,36.95 L41.18182,35.55 L35.242424,27.5 L33.262627,23.65 L37.71717,21.55 L40.191917,20.5 L45.636364,24.35 L48.11111,26.8 L48.60606,29.6 L49.10101,34.5 L46.626263,36.6 L44.646465,36.95 L42.17172,34.85 L36.727272,28.55 L35.242424,26.8 L35.242424,25.75 L37.71717,22.6 L42.666668,23.65 L45.636364,24.7 L48.60606,30.3 L46.626263,36.25 L43.656567,35.55 L42.17172,34.5 L38.21212,29.6 L37.22222,27.15 L36.727272,25.75 L36.727272,25.05 L37.71717,22.95 L38.70707,22.95 L44.646465,24.7 L47.61616,29.25 L47.61616,30.65 L47.121212,32.75 L45.141415,33.8 L42.666668,33.1 L38.21212,29.25 L37.22222,24 L38.70707,23.3 L44.646465,26.1 L44.646465,26.45 L44.646465,27.5 L43.161617,30.3 L41.67677,29.95 L38.70707,28.55 L38.21212,23.65 L39.696968,24.35 L41.67677,27.5 L40.191917,29.6 L39.20202,28.2 L38.70707,26.1 L41.18182,27.15 L40.191917,29.25 M114.92929,202.5 L132.25252,223.85 L128.29292,225.6 L106.0202,228.4 L99.09091,221.75 L104.535355,214.4 L113.93939,203.55 L119.878784,209.15 L120.37374,215.8 L119.878784,220 L118.393936,223.85 L115.42424,224.9 L104.535355,226.3 L105.030304,214.05 L114.43434,206 L117.40404,213.7 L115.42424,216.5 L108,223.85 L105.52525,225.6 L106.51515,218.6 L107.50505,213 L110.969696,215.45 L107.50505,223.15 M267.86868,186.75 L274.79797,188.5 L276.28284,193.05 L277.76767,203.55 L276.28284,204.95 L271.82828,205.65 L267.37375,202.15 L266.38385,200.05 L263.9091,189.2 L264.899,187.8 L268.36365,187.45 L268.85858,187.45 L269.84848,187.8 L274.79797,189.9 L276.77777,197.25 L276.77777,199.35 L276.77777,201.8 L276.28284,202.15 L270.34344,203.55 L269.84848,203.55 L268.36365,202.85 L266.38385,199.7 L264.899,191.3 L264.899,190.95 L267.37375,189.2 L269.35355,188.15 L274.79797,192 L276.77777,200.05 L274.30304,202.5 L270.34344,203.2 L268.85858,202.5 L265.8889,196.2 L267.86868,189.2 L270.34344,189.55 L271.33334,189.9 L273.80807,191.3 L275.29294,194.45 L275.78787,196.9 L273.80807,200.75 L271.33334,202.85 L270.83838,202.5 L268.36365,199.35 L266.38385,196.55 L266.38385,194.45 L267.86868,189.9 L268.85858,190.6 L271.33334,192.7 L274.79797,197.95 L274.30304,199 L270.83838,201.1 L270.34344,201.1 L268.85858,199 L267.37375,192.35 L267.86868,191.65 L273.80807,194.1 L269.84848,199.35 L267.86868,193.75 L269.35355,194.1 L270.83838,194.8 L269.84848,198.65 L269.35355,195.5" fill="none" stroke="#000" stroke-width="0.2"/>
<path d="m 15.815664,12.893319 c -1.445284,-3.0999497 -5.555449,-0.3575 -5.08537,2.32203 1.697826,2.92736 4.504013,-3.54417 4.40859,-2.58178 -1.548999,2.22986 0.741131,6.08701 3.012419,3.25791 2.532153,-2.82358 0.259001,-7.8326797 -3.488671,-7.9011197 -3.217272,0.056 -5.8863857,2.4603197 -7.9308737,4.7238797 -2.354585,2.46752 0.0048,5.887 2.757763,6.62143 3.2195457,1.10867 6.8759417,1.30834 9.9459317,-0.36585 2.270396,-1.12373 5.025949,-2.62031 5.680576,-5.20027 -2.108811,-3.66096 -6.038415,1.28356 -3.842036,3.67822 1.07278,0.89979 4.586982,-2.27037 3.201668,-2.73503 0.03094,3.24357 1.226854,6.37852 1.337023,9.60311 -0.672198,3.54892 -7.469251,0.32096 -4.637082,-2.5164 2.158436,-2.4193 5.610472,-2.84094 8.202925,-4.57369 0.993877,-1.40371 0.353413,-5.25046 3.182464,-3.48957 2.142923,1.43516 -2.250898,5.7532 1.723416,5.02339 1.661189,-0.71663 6.494946,-1.40457 4.601401,-3.95236 -4.205319,-0.68052 -1.190571,5.86505 1.665411,3.46881 1.929752,-0.9247 2.778055,-4.05119 1.423645,-5.35034 0.479155,1.8589 3.849911,7.52574 4.880369,3.32696 0.21201,-1.28088 0.40468,-3.80204 1.01246,-1.23041 0.5858,2.6865 3.83412,4.91909 4.56937,1.07383 0.65272,-1.00894 -0.2696,-4.02739 0.99929,-1.35746 1.10974,2.31613 6.32001,1.46113 6.147,-1.13059 -1.98394,-2.13868 -5.3717,1.45205 -3.78252,3.73454 2.57741,0.96208 6.69797,-0.21041 7.06275,-3.33983 0.41287,-2.63769 0.26643,-5.3430297 -0.11178,-7.9756197 0.67418,3.94149 1.24889,7.9380497 2.39963,11.7713397 2.10586,1.67977 5.7434,1.65022 7.74596,-0.23639 3.03149,-1.85431 -0.26637,-4.76925 -2.71777,-4.54025 -2.11577,0.0793 -5.36257,2.40772 -5.16868,3.85604 2.08262,-2.38818 5.55759,-1.22628 8.30726,-1.6832 3.182,-0.26596 6.46546,-0.57372 9.54494,-1.18158 0.24171,0.4199 -0.27752,0.54338 -0.43067,0.17453" fill="none" stroke="black" stroke-width="1" transform="translate(380,280) scale(0.3)"/>
</svg>